<svg id="Layer_1" data-name="Layer 1" xmlns="http://www.w3.org/2000/svg" viewBox="0 0 734.17 984.17"><defs><style>.cls-1{fill:#fff;}.cls-2{fill:#b35040;}.cls-3{fill:#fdfbfa;}.cls-4{fill:#dcaea7;}.cls-5{fill:#b45040;}.cls-6{fill:#b45041;}.cls-7{fill:#b45242;}.cls-8{fill:#bb6253;}.cls-9{fill:#edd5d1;}.cls-10{fill:#c37367;}.cls-11{fill:#efdbd7;}.cls-12{fill:#c77e72;}.cls-13{fill:#bf6a5d;}.cls-14{fill:#d09389;}.cls-15{fill:#e6c6c1;}.cls-16{fill:#cc897f;}.cls-17{fill:#d49c93;}.cls-18{fill:#fcf8f8;}.cls-19{fill:#fcf9f8;}.cls-20{fill:#fdfaf9;}.cls-21{fill:#fbf7f6;}.cls-22{fill:#fdfbfb;}.cls-23{fill:#fdfcfb;}.cls-24{fill:#fbf6f6;}.cls-25{fill:#faf2f1;}.cls-26{fill:#f6e9e7;}.cls-27{fill:#f3e2e0;}.cls-28{fill:#e4bfba;}</style></defs><path class="cls-1" d="M144.92,969.73V19.56H879.08v984.16H348l-.3-10.55-58.36-2.6-.07-1.41c12.33.31,24.69.34,37,1a219,219,0,0,0,42.29-1.6c3.87-.54,7.79-.76,12.06-1.16v10.16c3.9,0,7.46-.05,11,0q18.69.28,37.39.63c2.71.19,5.42.53,8.19-.59L421.37,992l-1.62-.63-20.08-7.71c-1.17-.51-2.32-1.07-3.51-1.53l-52.07-20c-1-.38-1.92-.86-3.25-1.47a7.45,7.45,0,0,1,1.52-.67c12-1.14,24-2.29,36-3.31a11.55,11.55,0,0,1,4.45.83c2.63.89,5.2,2,8.23,3.15v-4.69c0-13,0-25.94,0-38.92,0-1.27-.78-2.86.88-3.81v15.32c1.07-4.35.13-8.9,1.86-13.26a25,25,0,0,0,3.84-.57,7.08,7.08,0,0,0,2-1.47h7v44.65l23,9.22c0-1.88,0-3.12,0-4.36-.12-8.49-.28-17-.36-25.48q-.42-44.81-.78-89.59-.4-47.31-.82-94.61-.37-43.45-.74-86.89-.39-44.42-.77-88.82l-.75-88.44-.87-99.63c0-1.48-.11-2.95-.18-4.75-1.58.41-2.69.66-3.78,1-9.08,2.81-18.15,5.66-27.24,8.47l-43.08,13.3,0-1.44c7.18-2.44,14.35-4.89,21.54-7.3q24.85-8.35,49.72-16.63c1.26-.42,2.53-1.4,4-.3,5.11,3.86,10.27,7.66,15.64,11.66,0,5.27.1,10.41,0,15.55-.07,2.24.63,3.7,2.7,4.5s2.86,2.4,2.88,4.78c.14,16.09.44,32.18.67,48.26q.75,51.17,1.48,102.33.79,55.8,1.61,111.6.74,51,1.46,101.94.81,56.19,1.62,112.37.54,39.58,1,79.16c0,1.13.12,2.26.19,3.44,3.5,1.42,6.8,2.86,10.18,4.07a15.45,15.45,0,0,0,4.85.93q31.05.64,62.12,1.15,52.1.86,104.19,1.6a21.06,21.06,0,0,0,6.41-.91q71.54-21.79,143-43.71c28.14-8.59,56.32-17.07,84.47-25.64,1.79-.55,4.43-.41,3.72-3.94l3.52,1.71c.76-1.62,2.15-3.21.1-4.5s-2.1-3-2.31-4.94c-.4-3.63.31-7.52-2.55-10.63-.5-.55-.36-1.71-.47-2.6q-2-16.08-4.07-32.15-2.54-20.1-5.09-40.19Q860.4,797.75,858,778q-2.55-20.28-5.13-40.57-2.52-19.9-5-39.81c-.9-7.14-1.73-14.3-2.7-21.43-.37-2.65.38-4.58,2.81-5.7a4.27,4.27,0,0,0,2.54-4,4.59,4.59,0,0,1,.21-1.89c1.65-2.7.56-4.32-1.68-6.11Q732.8,565.84,616.71,473.07a26.15,26.15,0,0,0-5.25-3.16q-70.34-32.6-140.7-65.14a30.06,30.06,0,0,1-4.36-2.45c-12.61-8.68-25.23-17.34-37.74-26.16a7,7,0,0,0-7-1.1q-74.76,24.39-149.58,48.62c-1,.33-2,.83-3.44,1.44,2,1.6,3.52,3,5.22,4.09,2,1.27,2.52,2.88,2.37,5.17-.42,6.68-.69,13.37-.88,20.06a5.93,5.93,0,0,1-1.88,4q-25.86,28.14-51.66,56.34l-68.06,74.31c-.63.7-1.12,1.52-2.1,2.86h14.09c0,1.12,0,1.88,0,2.63a10.66,10.66,0,0,0,4.78,9.94c1.37,1,2.54,2.21,4,3.07,2.41,1.45,3,3.36,2.73,6.13-.66,5.88-1,11.8-1.39,17.7-.85,11.94-1.67,23.88-2.54,35.81q-1.8,25-3.65,50c-.86,11.8-1.67,23.61-2.53,35.42-1.17,16-2.39,32.07-3.55,48.12-.9,12.32-1.69,24.64-2.59,37-1.66,22.84-3.46,45.68-5,68.53-.22,3.25-.85,5.63-4.07,6.81-.08,0,0,.45,0,1H185a3.59,3.59,0,0,1,0,.73l-34,.69c-.53,5.25-1,10.09-1.51,14.95-1.12,11.64-2.17,23.29-3.34,34.93A22.5,22.5,0,0,1,144.92,969.73Zm345.9-611.07-.81-.76-1.37-1-1.57-1.5-.76-.29.35.71,1.72,1.39,1.6.7.77.81.69.81,1.63.7a1,1,0,0,0,.12.31c0,.06.17,0,.25.06l-.34-.4-1.43-.9ZM321.71,146.26l-.18.32.16-.34a1.25,1.25,0,0,0,.29-.11s0-.13.07-.2Zm4.64-3.87,1.65-.64,5.38-3.93,12.46-8.44c1.35-.73,2.72-1.44,4.05-2.2,9-5.1,18.15-9.67,28.27-12,6.2-1.46,12.38-2.29,18.56.18a17,17,0,0,0,3.75.84c15,2.29,29.95,4.62,45,6.75a22.94,22.94,0,0,1,9.05,3,65,65,0,0,1,9.1,6.45c3.92,3.5,7.45,7.44,11.17,11.17.72.72,1.52,1.35,2.29,2l.69-.62a15.5,15.5,0,0,0-1.44-2.44c-2.7-3.1-5.32-6.29-8.25-9.17-7.18-7-15.05-12-25.72-13.23-14.51-1.59-28.84-4.88-43.22-7.62a46.53,46.53,0,0,0-16.84-.49c-13.83,2.4-26,8.62-37.41,16.47L332,137.65l-4.4,3.65-1.29,1.08-.76.78-1.71,1.4-.26.53.54-.26,1.42-1.68Zm158.18,212,.83.2-.3-.56-1.7-1.36-.35.46Zm4.62-191.81.63.27-.44-.46-3.4-6.2-6.62-9.4c-1.06-.31-1.2.15-.85,1l6.72,9.12Zm14,246.36L497,404.22a22.74,22.74,0,0,1-.65-3.62c-.13-7.71-.35-15.44-.18-23.15a9,9,0,0,0-3.85-8.13c-16.66-13.13-33.18-26.44-49.7-39.74a11.22,11.22,0,0,0-5.91-2.49q-18.17-2.19-36.31-4.55a14.44,14.44,0,0,0-6.8.71q-39,13.83-78.1,27.57c-1.06.38-2.09.85-3.16,1.28-.2,2.14-.41,4-.56,6-.67,8.33-1.38,16.65-1.94,25a4.91,4.91,0,0,1-3,4.41c-10,5.5-20,11.13-29.95,16.72l-3.8,1.76v10.62l.33,0c.44-3.24.88-6.48,1.28-9.46l3.19-1.92c.71-.28,1.42-.58,2.15-.82l60.52-20.32q28.8-9.68,57.58-19.39c.41.24.9.77,1.22.69,2.66-.68,5.29-1.47,7.93-2.22L422,359.12c.36,1.44.61,2.41.85,3.38.16.69.31,1.38.47,2.07l.75-.19-.42-1.82c0-1.81,0-3.62,0-5.43l.75-1.44,3,1.5a.4.4,0,0,0-.08.43c-1.71,2-.59,4.29-.6,6.46l-.39,1.08c.22,0,.6.1.62,0a10.91,10.91,0,0,0,.33-1.28c.29-1,.59-2.07.86-3l3.92.93,0-.05.84,1c2.43,1.71,4.82,3.5,7.35,5.05.67.41,1.8.06,2.72,0q24.85,17.53,49.72,35.07c1.34.95,2.73,1.84,4.09,2.76l5.47,4,5,3.79.57-.7C506.62,411.14,504.81,410.08,503.11,408.91ZM334.88,336.37c-2.79.95-5.59,1.85-8.36,2.85s-5.67,1.53-8.16,3.13l.29.75,16.15-5.77L357.36,330c12.11-3.86,24.19-7.77,36.32-11.54a25.69,25.69,0,0,1,6.41-1c3.58-.16,7.17,0,10.76,0a50.88,50.88,0,0,0-11-2.25,13,13,0,0,0-5.23.38c-11.47,3.78-22.9,7.71-34.33,11.63a31,31,0,0,0-3.11,1.42,11.3,11.3,0,0,0-1.86.33C348.53,331.39,341.71,333.89,334.88,336.37ZM496.94,175.59c2.08-1.74,2.27-3.79,1-6.09-2.23-4.05-4.21-8.25-6.72-12.11-3.83-5.9-8-11.56-12.06-17.32-.08-.64-.18-1.28-.23-1.92-.6-7.32-3.48-13.36-9.74-17.56a15.37,15.37,0,0,1-2.23-2.12q-14-14.35-28-28.75a14.87,14.87,0,0,1-2.6-3.73A6.46,6.46,0,0,0,431.11,82c-5.83-.89-11.61-2.1-17.22-3.14-.81-1.31-1.26-2.68-2.2-3.41-1.69-1.29-1.89-2.85-1.81-4.73q.24-5.4.3-10.8c.05-4.23,0-8.45,0-12.93,6.08-1.65,10.54-6.47,17.13-5.76,1.72.18,5.27-7.05,4.49-8.6-1-2-6.37-3-7.74-1.11-3.39,4.54-8.82,5.28-13.52,8.16a19,19,0,0,1-.16-2.82c.42-3.46-1.19-7.19,1.43-10.39.24-.29-.06-1.24-.36-1.73A20.84,20.84,0,0,0,409.37,22c-1.88-2.14-3.35-2.09-4.92.28-1.12,1.68-2.05,3.5-3,5.21.7,1.58,1.82,3,1.93,4.56.27,3.83.09,7.69.09,11.75-3.28,1.89-6.61,3.81-9.92,5.75-1.24.74-2.4,1.34-4,.85s-3,.22-3.83,1.79a11.25,11.25,0,0,1-1.66,2.07c-1.94,2.14-2.09,3.44-.26,4.83,2.63,2,5,2.54,6.46.54,3.21-4.54,8.57-5.63,13.48-9.16-.31,8.42-.58,15.81-.85,23.2l-.79-.34c-1.61,1.92-3.18,3.88-4.83,5.76a11.1,11.1,0,0,1-2.47,2.28,41.53,41.53,0,0,1-5.2,2.52c-13.07,5.36-26.13,10.75-39.25,16C340.15,104,335,111.74,335.52,122.69c.09,1.92,0,3.85,0,5.78-5.56,4.54-11.14,9.07-16.67,13.64-3,2.49-3.1,2.81-2.82,7,1.77-4,1.77-4,5.68-7.37l15.51-13.2c9.26-6.81,19-12.75,29.91-16.56,11.6-4,23.43-5.83,35.63-3.35,5.29,1.08,10.51,2.46,15.81,3.46,10.72,2,21.34,4.74,32.35,4.94a6.11,6.11,0,0,1,2.88.92,76.66,76.66,0,0,1,6.42,4.25c6.75,5,12.3,11.29,17.46,17.89a11.59,11.59,0,0,0,.9,1.67,182.33,182.33,0,0,1,15.83,24.54c1.61,3,3,5.89,2.59,9.36l-.43.46ZM470.8,342.34c-8.79-6.89-17.54-13.83-26.39-20.62a9.26,9.26,0,0,0-4.27-1.46c-4.56-.63-9.16-1.05-13.74-1.55,4.16,1.52,8.46,2.5,12.67,3.77a19.91,19.91,0,0,1,5.82,2.74c8.36,6,16.6,12.08,24.89,18.14l12,9.28.77-1C478.49,348.72,475,345.14,470.8,342.34ZM319.45,179.43c-.74-1.47-1.48-2.93-2.2-4.41-1.36-2.83-2.71-5.66-4.14-8.67,0,1.57-.57,3.45,0,4.85a74.83,74.83,0,0,0,4.64,8.27,12.44,12.44,0,0,0,1,2.09,14.09,14.09,0,0,1,2.23,9.49c-.73,10.13-1.18,20.28-1.8,30.43-1.17,19.51-2.4,39-3.56,58.54-.9,15.15-1.72,30.31-2.6,45.46-.22,3.71-.55,7.41-.83,11.12l-5,2.3v4.31c.91-2.55,3-3.51,5.35-4.29,3.17-1,6.25-2.34,9.39-3.46,5.06-1.8,10.15-3.55,15.32-5.35.16-2,.38-3.78.45-5.56q1.29-32.21,2.54-64.41c.59-15.16,1.14-30.33,1.77-45.5.13-3.07,0-6.32.94-9.16a34,34,0,0,1,10.74-15.74,21.38,21.38,0,0,1,10-4.63c5.62-1,10.37,2.35,11.16,7.72a1.89,1.89,0,0,1-.66.31c-8.67.39-14.59,5.13-18.94,12.18-2,3.27-4,6.66-4.16,10.65q-.89,18.71-1.71,37.4-.45,9.83-.93,19.66-1.31,26.21-2.61,52.42a7.24,7.24,0,0,0,.34,1.57c1.32-.42,2.41-.74,3.48-1.11,14.46-5,28.93-9.92,43.36-15a16,16,0,0,1,7.93-.85c2.92.44,5.85.85,8.79,1.17,5.87.63,11.74,1.2,17.61,1.79l.78.08a27.86,27.86,0,0,0,2.93.73c3.05.43,6.15.63,9.16,1.24a12.29,12.29,0,0,1,4.81,2.06c6.77,5.12,13.41,10.42,20.11,15.62a22.28,22.28,0,0,0,2.55,1.44c0-2,0-3.54,0-5.06q-.36-50-.73-100c-.06-8.65-2.63-16.15-10-21.51.22-1.27.34-2.55.67-3.78,1.2-4.6,4.32-5.84,8.46-3.34a22.08,22.08,0,0,1,8.32,9.43,39.16,39.16,0,0,1,4.1,16.72q.33,15.83.55,31.65.53,41.51,1,83c0,.38,0,.77,0,1.15a3.38,3.38,0,0,0,1.61,3.24c3.89,3,7.7,6,11.57,9a9.51,9.51,0,0,0,2.21.88c-.21-6.16-.48-11.91-.59-17.67q-.86-44.58-1.64-89.16c-.32-17.89-.53-35.78-1-53.66-.11-4.35.27-8.43,2.47-12.24a12.85,12.85,0,0,0,.71-2.28l-3.67,2.84c-1.87-4-3.58-7.86-5.48-11.63C480.83,161,474,151.3,464.54,143.59c-7.18-5.86-15.11-10.06-24.44-11.53-10.92-1.7-21.78-3.73-32.64-5.76-9.95-1.85-19.89-2.52-29.88-.53-22.23,4.41-39.5,16.7-53.53,34a8,8,0,0,0-1.46,4.18c-.47,5.13-.7,10.27-1,15.4a9.22,9.22,0,0,1-.58,1.78ZM501.88,362.7c1.51-1.18.12-2-.7-2.87a30,30,0,0,0-3.08-2.89c-.86-.66-1.47-2.18-3.47-1.18ZM490.52,164.39l-.16-.12,0,.2ZM478.31,146l-.28-.5c-.08.09-.25.19-.24.26a3,3,0,0,0,.24.52ZM509,414l-.22-.15,0,.21Z" transform="translate(-144.92 -19.56)"/><path class="cls-2" d="M289.29,990.57l58.36,2.6.3,10.55h-6.17l-12.42-.68-20-.93q-17.13-.83-34.27-1.67-34.86-1.77-69.7-3.56c-17.21-.86-34.41-1.65-51.61-2.5a14.49,14.49,0,0,1-2.25-.48c.13-2.13.32-4,.32-5.95a6.35,6.35,0,0,0-.61-2.83c-1.22-2.33-1.09-2.77,1.49-3,5.75-.57,11.51-1.07,17.27-1.63,5.47-.53,10.94-1.11,16.56-1.68v-3.4l-41.61-2.57v-3.09a22.5,22.5,0,0,0,1.33-4.28c1.17-11.64,2.22-23.29,3.34-34.93.46-4.86,1-9.7,1.51-14.95l34-.69,33.11-.12h19.91v-.56H218.19L185,914.15H151.86c0-.55-.07-1,0-1,3.22-1.18,3.85-3.56,4.07-6.81,1.52-22.85,3.32-45.69,5-68.53.9-12.32,1.69-24.64,2.59-37,1.16-16.05,2.38-32.08,3.55-48.12.86-11.81,1.67-23.62,2.53-35.42q1.82-25,3.65-50c.87-11.93,1.69-23.87,2.54-35.81.43-5.9.73-11.82,1.39-17.7.31-2.77-.32-4.68-2.73-6.13-1.42-.86-2.59-2.11-4-3.07a10.66,10.66,0,0,1-4.78-9.94c.05-.75,0-1.51,0-2.63H151.62c1-1.34,1.47-2.16,2.1-2.86l68.06-74.31q25.82-28.17,51.66-56.34a5.93,5.93,0,0,0,1.88-4c.19-6.69.46-13.38.88-20.06.15-2.29-.39-3.9-2.37-5.17-1.7-1.09-3.21-2.49-5.22-4.09,1.45-.61,2.41-1.11,3.44-1.44q74.79-24.3,149.58-48.62a7,7,0,0,1,7,1.1c12.51,8.82,25.13,17.48,37.74,26.16a30.06,30.06,0,0,0,4.36,2.45q70.35,32.58,140.7,65.14a26.15,26.15,0,0,1,5.25,3.16Q732.84,565.8,849,658.54c2.24,1.79,3.33,3.41,1.68,6.11a4.59,4.59,0,0,0-.21,1.89,4.27,4.27,0,0,1-2.54,4c-2.43,1.12-3.18,3.05-2.81,5.7,1,7.13,1.8,14.29,2.7,21.43q2.51,19.9,5,39.81Q855.39,757.76,858,778q2.47,19.72,4.92,39.44,2.53,20.1,5.09,40.19,2,16.07,4.07,32.15c.11.89,0,2.05.47,2.6,2.86,3.11,2.15,7,2.55,10.63.21,2,.34,3.7,2.31,4.94s.66,2.88-.1,4.5l-3.52-1.71c.71,3.53-1.93,3.39-3.72,3.94-28.15,8.57-56.33,17-84.47,25.64q-71.52,21.82-143,43.71a21.06,21.06,0,0,1-6.41.91q-52.1-.72-104.19-1.6-31.06-.51-62.12-1.15a15.45,15.45,0,0,1-4.85-.93c-3.38-1.21-6.68-2.65-10.18-4.07-.07-1.18-.17-2.31-.19-3.44q-.51-39.59-1-79.16-.78-56.19-1.62-112.37-.74-51-1.46-101.94-.81-55.8-1.61-111.6-.75-51.16-1.48-102.33c-.23-16.08-.53-32.17-.67-48.26,0-2.38-.67-3.94-2.88-4.78s-2.77-2.26-2.7-4.5c.14-5.14,0-10.28,0-15.55-5.37-4-10.53-7.8-15.64-11.66-1.47-1.1-2.74-.12-4,.3q-24.87,8.26-49.72,16.63c-7.19,2.41-14.36,4.86-21.54,7.3l-23.89,7.79c-5,1.61-10,3.17-15,4.85-3.13,1.06-6.2,2.31-9.29,3.47-3.85.3-7.22,2-10.72,3.25l.34,1,10.55-3.88c2.32-.64,4.67-1.2,7-1.93,6-1.94,12.05-3.95,18.07-5.93l22.91-7.21L393.34,394c9.09-2.81,18.16-5.66,27.24-8.47,1.09-.34,2.2-.59,3.78-1,.07,1.8.16,3.27.18,4.75l.87,99.63.75,88.44q.39,44.4.77,88.82.38,43.44.74,86.89.4,47.3.82,94.61.39,44.79.78,89.59c.08,8.49.24,17,.36,25.48,0,1.24,0,2.48,0,4.36l-23-9.22V913.23h-7a10.68,10.68,0,0,0-7.67,0c-1.66.95-.87,2.54-.88,3.81-.06,13,0,26,0,38.92v4.69c-3-1.17-5.6-2.26-8.23-3.15a11.55,11.55,0,0,0-4.45-.83c-12,1-24,2.17-36,3.31a7.45,7.45,0,0,0-1.52.67c1.33.61,2.27,1.09,3.25,1.47l52.07,20c1.19.46,2.34,1,3.51,1.53,0,.46,0,.93-.05,1.39l-18.5-6.71L358,969.74c-5.84-2.26-11.67-4.55-17.53-6.75a9,9,0,0,0-3-.36q-30.92-.21-61.85-.36c-1.53-.1-3.06-.29-4.59-.29q-18.9,0-37.78.13h-3.88a25.49,25.49,0,0,0,6.54.61c5.65.06,11.3.13,16.95.24,7.57.13,15.13.3,22.69.45,19.91.35,39.83.67,59.74,1.09a23.06,23.06,0,0,1,6.37,1.14c5.5,1.76,10.93,3.73,16.38,5.61l23.14,8.36c5.1,1.86,10.18,3.77,15.31,5.57a27.78,27.78,0,0,0,4,.81l0,0,3.94,1.81,1.67.53,2.91.77h0c.81,1.73,2.37,1.58,3.88,1.55l0,0,2.34.79,0,0,1.78.83c1.38,1.13,2.27.6,2.89-.85l1.62.63c-.39,1.95.83,2.57,2.35,3.25,1.84.82,4.3.63,5.27,3q-18.69-.32-37.39-.63c-3.57-.06-7.13,0-11,0V987.42c-4.27.4-8.19.62-12.06,1.16a219,219,0,0,1-42.29,1.6c-12.31-.68-24.67-.71-37-1a4.24,4.24,0,0,0-.74-.19l-64.75-1.84L202,986.64c-1.59-.23-3.17-.59-4.77-.66-5.55-.24-11.11-.38-16.66-.56H161.15v.37l19.39.83,21.58.74,21.58.75q29.55,1.25,59.08,2.48C284.94,990.67,287.12,990.58,289.29,990.57Zm543-310.05L829.91,679l-8.78-5.74-18.62-12.37a57.78,57.78,0,0,1,.71,6.87c-.06,2.57,1.24,3.85,3.31,5,6.56,3.81,12.91,8,19.56,11.63,3,1.64,4,3.73,4.39,6.95,1.51,13.67,3.24,27.32,4.91,41q2.55,20.86,5.13,41.73,2.46,20.1,4.92,40.2Q848,835,850.53,855.63q1.23,9.9,2.48,19.8l4.92,1.05c-2.79,1.76-5.72,1.1-8.55,1.25s-5.55,0-8.33,0v.45l16.65.6c.21,1.58.4,2.83.55,4.09.34,2.94.62,5.89,1,8.81.13.93.07,2.22,2.09,2-.14-1.61-.23-3.23-.43-4.83q-2.49-19.9-5-39.8t-5-39.8q-2.89-22.95-5.81-45.91-2.57-20.28-5.11-40.56-2.18-17.41-4.29-34.84c-.15-.31-.31-.61-.46-.92l-.92-4.68h0ZM661.66,569.26l-2.31-1.59c-6.74-5.41-21.72-15.23-24.17-15.82,0,3.08.12,6.16,0,9.23a4.66,4.66,0,0,0,2.78,4.87c5.86,3.21,11.56,6.69,17.37,10a4,4,0,0,1,2.24,3.65c.47,8.34,1.06,16.67,1.65,25,.61,8.59,1.3,17.17,1.91,25.75q1.24,17.49,2.43,35l-1.34,0c-1.81-6.42-3.35-12.93-5.53-19.21-1.24-3.58-3.39-6.89-5.41-10.15a9.94,9.94,0,0,0-6.12-4.42c-1.61-.4-3.21-.35-3.86,2.14,4.7-1,7.36,1.44,9.51,4.73a25.85,25.85,0,0,1,2.61,4.71c1.49,3.82,3,7.66,4.09,11.6,1.33,4.82,2.18,9.77,3.4,14.62.33,1.32-.17,3.33,2.08,3.62,1.55.82,1.35,2.32,1.44,3.72.36,5.64.7,11.29,1.1,16.93q1.82,25.58,3.66,51.15c.65,9.1,1.36,18.19,2,27.3.67,9.74,1.27,19.49,1.9,29.24l-1.49,2.26-7.88-.79c-2.44-1-4.92-1.65-7.64-.64l7.71,1.43,9.77,1.73q2.18,33,4.68,66.09l7.57.44c.7,1.56.18,2.17-1.16,2.26l-23.68-.87,0,.38,23.6,1.92c.77,7.61,1.54,15.22,2.32,23h3.24c-.4-5.52-.76-10.88-1.19-16.24-1.17-14.61-2.38-29.22-3.55-43.83-.88-11-1.71-22-2.59-33.07q-1.8-22.7-3.65-45.37c-.85-10.64-1.67-21.28-2.53-31.92-1.17-14.48-2.39-29-3.55-43.44s-2.25-29-3.39-43.46q-1.82-22.87-3.68-45.75c-.57-7.18-1.09-14.36-1.73-21.53-.13-1.44.23-3.22-1.62-4Zm119.8,77.84-1.92-1.16L778,644.85l-7.71-5.08q-8.16-5.47-16.32-10.92c-.08-.06-.25,0-.37.06s-.17.14-.46.39a66.68,66.68,0,0,1,.73,7.09c0,2.25,1,3.42,2.84,4.54,9.53,5.85,18.93,11.92,28.5,17.7a6.48,6.48,0,0,1,3.42,5.5c.46,4.86,1.06,9.71,1.6,14.57q2.46,22.23,4.94,44.47c1.68,14.82,3.42,29.63,5.1,44.45s3.29,29.64,5,44.46q3,26.46,6,52.89c.4,3.51.88,7,1.31,10.41l5.22.53c.16,2-1,1.83-2,1.83a21,21,0,0,0-3.63-.67c-7-.06-14.08,0-21.11,0H784.2a10.45,10.45,0,0,0,4.54.73q4.6.06,9.21.18l18,.51c1.54,0,1.36,1.21,1.45,2.21.34,4,.69,7.94,1,11.91.17,2,1,3,3.35,2.47-.44-3.76-.87-7.32-1.28-10.87q-2.48-21.45-5-42.9-2.55-21.84-5.15-43.66-2.1-17.8-4.17-35.61-2.52-21.45-5.06-42.89-2.33-19.53-4.7-39c-.62-6-1.78-11.92-1.72-17.87.06-6.48-3.43-9.66-8.59-12l-2.27-1.54ZM371.13,481.5l.31,1a2.73,2.73,0,0,0,.25-.25c-.19-.25-.39-.48-.6-.72l-1.39-3.29c-3.16-5.48-8-8.35-14.2-7.85-3.33.27-6.57,1.74-9.85,2.67-7.18,2.71-12.25,7.83-16,14.35a46.19,46.19,0,0,0-5.87,19.39c-.82,1-3.9.49-2.25,3.24a12,12,0,0,0,1.9,0,19.62,19.62,0,0,0,2.23-.6c.14-1.43.28-2.69.38-3.95,1.22-14.23,7.32-25.25,20.65-31.53,1.62-.32,3.22-.74,4.85-.95,7.14-.89,12.94,1.82,17.91,6.73Zm179,56.85c.46.94.73,2.13,2.65,1.47L550.3,537a.47.47,0,0,0-.3-.28,21.73,21.73,0,0,0-18.17-8.55c-14.75.4-29.53,12.87-32.71,27.32a9.26,9.26,0,0,0,0,1.9l.83.19c.51-1.24,1-2.48,1.53-3.73A38,38,0,0,1,520.56,533c9.27-4.64,17.9-3.32,26.05,2.71.82.61,1.65,1.19,2.48,1.79Zm170,337.79,8.37.46q.9,7.92,1.79,15.84c.92-5.47.16-10.82-.72-16.17l-.18-.85-.6-10.13q-.6-8.82-1.21-17.65l-1-15-6-.34a2.27,2.27,0,0,0,1.55,1.18c2.77.33,3.39,2,3.45,4.55.07,3.2.57,6.39.88,9.58q.75,8.88,1.49,17.75c.17,3.27.35,6.54.52,9.81l-8.34.23c-2.12-1.14-4.25-.68-6.4.11A14.53,14.53,0,0,0,720.13,876.14Zm-356.5-55.68v7l.4,0q.36-3.52.73-7c.08-1.19.25-2.26,1.77-2.5a25.2,25.2,0,0,0,3-.83l-.09-.25h-5.4Zm367.27-6.3-9.13-2c-.06.23-.11.47-.17.71l9.32,2.18,2.77.22,0-.71Zm-66.37-2.08c1.39-.34,2.85,1.35,5.06-.35l-5.12-.54c-3.17-1.32-6.5-1.66-9.82-2.09,0,.26-.09.52-.14.78Zm-314.39,6.84,4.83-.72-.15-.86-4.52.86-5.21.25v9.46h.25c.22-2.77.45-5.55.68-8.41Zm380,.05c3.25.3,6.35,2.07,9.68,1.53l.15-1.07-9.94-1.31c-2.19-1-4.43-1.51-6.88-.58ZM840.47,838.4l2.18-1.82-9.86-1.23-.08.4,7.78,2.67-9.93-.44a55.61,55.61,0,0,0,8.06,2C839.85,840.24,840.59,839.78,840.47,838.4ZM730.11,613.58,727.79,612,726,610.78a1,1,0,0,1-.41-.09L724,609.4l-8.61-5.7c-.79-.64-1.54-1.35-2.37-1.93q-13.54-9.24-27.13-18.44a11.07,11.07,0,0,0-2.25-.82c0,3.06.17,5.77,0,8.45s.75,4.15,3,5.56c15.13,9.53,30.13,19.25,45.25,28.79a6.58,6.58,0,0,1,3.49,5.45c.73,8.46,1.62,16.9,2.44,25.35,1.38,14.34,2.73,28.69,4.14,43,1.67,16.9,3.42,33.79,5.08,50.68s3.27,34.06,4.93,51.09q3,30.92,6.09,61.82c.39,3.91.88,7.82,1.33,11.76l5.81.26c-.71,7.59,1,14.71,1.41,22h3.07c.16-.44.34-.68.32-.9q-1.53-15.17-3.09-30.33-2.16-20.71-4.33-41.44c-1.14-11-2.23-22-3.37-33q-2.16-20.73-4.35-41.45c-1.14-11-2.23-22-3.37-33q-2.17-21.12-4.4-42.22c-1.27-12-2.59-24-3.88-36-.38-4.43-1-8.85-1.08-13.28a6.66,6.66,0,0,0-4.6-6.61l-7.36-4.9ZM536.27,875.16c-4.47.12-8.95,0-13.36,1,4.48,1,8.94,0,13.4,0l3.06,0,18.47-.79,17-.83v-.19H557.76c-2.17.09-4.34.19-6.51.26-4,.12-7.92.22-11.89.33Zm196.25-52.37c1.15.15,2.3.26,3.44.45,1.48.24,1.47.27,3.26-.78l-6.81-.54-12.22-2.34-.19,1.07ZM226.75,689.22l-10.29,1.11,0,.94a11.25,11.25,0,0,0,2.31.11c2.63-.4,5.26-.91,7.88-1.38l13.21-2.27-.19-1.07ZM321.2,876.94v15.31h.31q.4-7.65.82-15.29l.5-2.87,8.51-1.28,0-.24h-9.7Zm-.65,33.9v16.32l.23,0,.75-16.26.44-2.66,6.65-.72-.07-.56h-7.7C320.74,908.36,320.65,909.6,320.55,910.84Zm-87.7-214.66,8.59-1.58-.2-1-8.3,1.81c-5.16,0-10.13,1.21-15.12,2.41C223,698.33,227.83,696.64,232.85,696.18Zm108.9-120c-3.86.72-7.76,1.31-11.37,3.05,4,.31,7.58-1.28,11.35-2l15.47-3.84-.26-1Zm9.34,217.27-15.53,1.14-8.49.83-8.38.8c0,3.77,0,7.11,0,10.44,0,1.52.69,2,2.44,1.37V797.53l6-.95,8.48-.83,15.35-1.54,14-1.45A32.41,32.41,0,0,0,351.09,793.43Zm-29.11,51v18.64h.33l.81-18.58.33-5,5.86-.63,0-.31h-6.9C322.24,840.65,322.11,842.53,322,844.42Zm42,32.45c.1-1.61.2-3.22.31-4.82l5.26-.9-.09-.34H363v24.68c.35-3.15.5-6.31.64-9.47S363.85,879.92,364,876.87Zm-37-61.74,7.75-.8-.08-.81-7.51.67-8.6.44v17.59a23.67,23.67,0,0,0-.61,3.69c-.1,9.33-.13,18.66-.17,28a25.46,25.46,0,0,0-.66,4c-.09,8.7-.09,17.39-.12,26.09a25.49,25.49,0,0,0-.69,4c-.06,7.44,0,14.87,0,22.3v5.53a7.81,7.81,0,0,0,.69-1.62q.4-15.13.77-30.28c.06-5.48.06-11,.18-16.43.11-4.56.36-9.13.55-13.69.11-5.73.21-11.46.35-17.19.12-4.83.28-9.65.42-14.48.11-5.3.23-10.61.34-16.16Zm20.1-235.6,12.58-3.06-.16-.74a69.09,69.09,0,0,0-12.21,2.58l-14.86,3c.51,2.09,1.82,1.38,2.79,1.15C339.23,581.56,343.17,580.53,347.12,579.53Zm-1.41-8.66L328.8,574c-.09,1.59.67,1.7,1.88,1.4q7.43-1.85,14.86-3.63l11.93-2.88-.21-.86C353.37,568.8,349.39,569.13,345.71,570.87Zm152.12-9.81c-.42,3.28-.85,6.56-1.28,9.81-.91.58-2.88-.31-2.51,2.42l4.12-.8c.36-4,.69-7.74,1-11.42.17-1,.34-2.06.61-3.66A3.86,3.86,0,0,0,497.83,561.06ZM476.88,907.92c7,0,14,0,21,0a22.22,22.22,0,0,0,3.66-.62l24.77-.39,26.19-.68,92.06-2.05a3.92,3.92,0,0,0-2.65-1.4c-4.48-.29-9-.74-13.44-.64-12,.28-23.91.8-35.86,1.26q-20.05.76-40.09,1.59l-26.24.82-24.67.76c-1.39,0-2.78-.12-4.17-.07-6.83.25-13.65.54-20.47.81l-18.64.74a172.74,172.74,0,0,0,17.61.55C476.27,908.55,476.58,908.14,476.88,907.92Zm53.28-262.69c-5.43.67-10.85,1.39-16.29,2a47.35,47.35,0,0,1-5.21,0c-.16,2.14,1.29,2,2.92,1.72q9.23-1.53,18.47-3l14-2.27-.13-.77C539.27,643.41,534.6,643.52,530.16,645.23Zm2.3,3.13a110,110,0,0,0-22.12,3.76,13.15,13.15,0,0,0,4.73-.16L532.35,649l13.2-2.3-.12-.78c-3,.42-6,.78-9,1.29A32.65,32.65,0,0,0,532.46,648.36Zm-17-4.69L541,639.1c-.46-.61-.85-.74-1.2-.68-5,.78-10,1.53-15,2.4-3.1.54-6.17,1.27-9.26,1.92l-7.31,1,.13,1ZM365,694.58c-13.26.65-20.59,1.8-22.91,3.84,1.37-.12,2.36-.15,3.33-.29q9.72-1.35,19.44-2.73l16.29-2.27-.11-.85c-3.65.37-7.3.68-10.93,1.15C368.36,693.66,366.68,694.19,365,694.58ZM222,889.26l20.91-1c-6.6-.29-13.21-.3-19.82-.26-.32,0-.64.36-1,.55-7.78.05-15.55.08-23.33.17a27.45,27.45,0,0,0-3.7.52l-8-.1c0-4.05,3.54-2.15,5.07-4.14.14-1.8.37-4.09.5-6.38.37-6.43.67-12.86,1.05-19.28q1.84-31,3.74-62c.57-9.51,1.1-19,1.68-28.52q1.82-30.06,3.66-60.12c.85-14.26,1.65-28.52,2.5-42.78,1.23-20.68,2.6-41.35,3.65-62.05.25-4.86,1.78-9.17,3.75-13.6-1.3-.46-2.51-.86-3.69-1.32a15,15,0,0,0-10.1-.25c-8,2.34-16.14,4.29-24.21,6.42-1.18.31-2.32.75-3.48,1.13,1.31,3.22,1.76,3.63,5.7,5.67a21.42,21.42,0,0,1,3.65-1.9c2.46-.7,5-1.15,7.51-1.7l15.38-3.31c-6.54,105.26-14.32,210-19.76,315.26l3.84-.35c.42-6.66.82-13,1.23-19.47l6.26-.31c1.41,0,2.82.14,4.23.09C206.86,889.88,214.44,889.56,222,889.26Zm3.31,85L253,975c3.21.1,6.42.18,9.63.31s6.15.39,9.23.44,6.17.51,9.9-.26c-3-1.3-18.67-2-28.74-1.65-2.93-.1-5.87-.24-8.81-.3q-9.39-.19-18.8-.33h-25.6a16.69,16.69,0,0,0,4,.36c3.46,0,6.91.07,10.37.18C217.94,973.87,221.63,974.07,225.32,974.23Zm119.36-89.65c.18-3.69.36-7.37.54-11.19,2.13-.38,3.89-.66,5.64-1s3.46-.74,4.76-1H343.71v25.7l.27,0Q344.32,890.83,344.68,884.58Zm-38.43-94.89c-1.62-.23-1.94.74-2,2.07q-.23,14-.48,28.07c-.15,1.92-.39,3.83-.45,5.75q-.8,24.88-1.53,49.76-1.14,37.6-2.28,75.21c0,1.12,0,2.25,0,3.52h12.71c1.17-53.61,2.33-106.92,3.5-160.61l57-5.47c-.16-1.59-.29-2.82-.44-4.26l-42.88,3.75c-5.42.37-10.85.68-16.27,1.14C310.86,788.82,308.56,789.33,306.25,789.69ZM836.52,897.75l16.32-.79a146.92,146.92,0,0,0-15.26-.46c-.32,0-.63.38-1,.58l-32.38,1c-3.69.14-7.38.27-11.08.43q-11.83.5-23.66,1c-7.41-.28-14.83,1.34-22.57-.22-.55-7.69-1.09-15.32-1.64-23l-4.59-1c-1.93-15.7-3.86-31.33-5.76-46.79-5.5-1.68-14.4-2.54-16.39-1.54,2.65,2.25,6.31,1,9,2.8.83,8.19,1.68,16.37,2.49,24.54,1.36,13.68,2.69,27.37,4.08,41,.13,1.33.1,2.7,1.79,3.51,1.3.62.59,1.67-.39,2.33l-23.93.61c-1.53,0-3.07-.13-4.6-.08-8.44.26-16.89.51-25.32.88-4.43.2-8.85.66-13.27,1a16.23,16.23,0,0,0,3.8.28c10.75-.19,21.49-.37,32.24-.6,2.42-.05,4.83-.28,7.25-.42l23.68-.26c1.36,10.68,2.73,21.36,4.13,32.37h7.13c1,2.4-.87,2.18-1.36,2.45.51,2.89,1,5.58,1.41,8H756.9L754,902l15.44-1.09c1.27,0,2.54.12,3.8.05,10.31-.54,20.61-1.12,30.91-1.68,1.53,0,3.05.05,4.57,0Q822.64,898.54,836.52,897.75Zm-480-85.7-15.45.7a6.65,6.65,0,0,0-.56,1.57q-.17,25.57-.3,51.14a24.74,24.74,0,0,0-.65,4c-.06,11.71,0,23.43-.09,35.14,0,2.17-.47,4.33-.52,6.49,0,1.84-.82,3.86.93,5.48.35-3.48.34-6.93.36-10.38,0-7.47,0-14.94.14-22.4.1-6.16.35-12.31.53-18.47.34-17,.68-34,1-51.28l14.42-1.29c4.66-.5,9.42-.3,13.93-2-4.42.07-8.81.42-13.2.8C356.85,811.6,356.67,811.89,356.48,812.05ZM250.71,595a.88.88,0,0,0,.07.33c0,.06.16.06.24.09l-.36-.37C246.25,591,241,590.83,236,593c-8.08,3.47-14.32,9.14-17,17.85A106.6,106.6,0,0,0,216.09,624c-.36,2.1-.29,4.19-2.53,5.33-.05,0,.1.46.16.7,3.18.29,3.18.29,3.59-2.23.61-3.67,1.08-7.38,1.84-11,1.81-8.69,6.12-15.72,13.88-20.42,4.91-3,10-3.87,15.46-1.78A14.81,14.81,0,0,0,250.71,595Zm455.47,68.79c5.15-1.79,7.79-1.15,11.1,3.17a27.9,27.9,0,0,1,4.12,6.93,188.9,188.9,0,0,1,6.22,18.61c1.73,6.56,2.76,13.32,4.06,20,.28,1.43.41,2.94,2.49,2.16-.33-1.92-.7-3.75-1-5.59a143.26,143.26,0,0,0-7-29.18c-1.91-5.21-4.21-10.25-7.88-14.48a20.12,20.12,0,0,0-4.6-4c-3-1.83-5.61-.85-7.52,2.46l-.17.07ZM616,500.72c-2.56-3-5.6-4.24-9.45-2.55a12.39,12.39,0,0,1-1.87.39q-9.12,2.24-18.23,4.51c-9.45,1.66-18.73,4.08-28.7,6.41,2.19,1.26,4.63,1.84,4.89,2.94,1.05,4.45,3.7,2.55,6.1,2,.5-.11,1-.27,1.49-.38,11.69-2.45,23.38-4.84,35-7.4a5.77,5.77,0,0,1,5.35,1c2,1.54,4.12,2.83,7,4.74-.25-3.44-.41-5.93-.62-8.42C616.89,502.86,617.49,501.48,616,500.72ZM286.21,913.42h-8.78a166.62,166.62,0,0,0-.33,17c-.26,8.16-.51,16.32-.78,24.88L291,954c.4-13.73.78-27,1.16-40.6ZM324,699.52l-23.13,2.58c0-2-.05-3.5,0-5q1.61-42,3.23-84.07.75-19.66,1.54-39.33,1.89-48.21,3.8-96.41c.28-7,.62-14.09.94-21.42L390,433.49v-9.55c-1.05.24-1.81.37-2.53.58q-34.9,10.37-69.8,20.76a16.48,16.48,0,0,0-2.65,1.34h0l-5.87,1.5-2.45.66c-1.45.28-1.2,1.44-1.25,2.43-.28,6.17-.53,12.34-.81,18.51q-1.53,33.74-3.06,67.48c-.61,13.49-1.13,27-1.75,40.49q-1.74,37.78-3.55,75.57-1.12,24.3-2.19,48.59c0,1.08,0,2.17,0,3.56l30.59-4.6c6.62-.19,14.72-1.68,16.64-3.59ZM486.84,873.75l4.92-.84c-3.21-137-6.42-273.6-9.64-410.69,1.8.81,3.07,1.33,4.31,1.94Q521,480.89,555.5,497.64c1.14.55,2.45,1.42,3.55,1.26,4-.57,7.87-1.51,11.8-2.32A75.61,75.61,0,0,0,560,490.19l-56-28.66q-13.1-6.82-26.22-13.65c-.19-.1-.48,0-1.09,0,0,2.26-.05,4.53,0,6.79.16,6.4.36,12.8.55,19.19,0,1.8,0,3.59.07,5.39q1.23,60.38,2.44,120.76.75,36.86,1.5,73.7,1.23,61.53,2.44,123.08c.38,19.16.7,38.33,1.09,57.49.13,6.3.39,12.59.6,18.89.14,9.78.27,19.55.44,29.32a3.81,3.81,0,0,0,.51,1.27c2.15,0,2-1.45,1.95-2.74q-.14-8.88-.28-17.76c0-1.38,0-2.76,0-4.49,2.67-.1,5-.17,7.24-.3s4.62-.35,6.93-.48,4.37-.13,6.56-.24a69.31,69.31,0,0,0,6.92-.47c2.11-.31,4.47.53,6.32-1.35-11.63-.74-23.24.76-35,.22C487,875.23,486.89,874.49,486.84,873.75ZM624.74,507c0,2.81.1,5,0,7.14-.16,2.72,1,4.37,3.27,5.94q105.46,74.34,210.83,148.8c.92.64,1.88,1.22,2.9,1.88l4-3.76c-2.33-1.44-4.54-2.6-6.53-4.05q-105-76.36-209.89-152.79C627.93,509.16,626.56,508.24,624.74,507Zm39.87,290.9c-.31-4.09-.59-7.9-.88-11.72q-1.32-17.5-2.64-35-1.76-22.5-3.56-45c-1-13.33-1.95-26.68-3.23-40a40.92,40.92,0,0,0-2.89-10.33,10.52,10.52,0,0,0-3.34-4.1c-2-1.6-3.69-1.16-4.47,1.32a23.19,23.19,0,0,0-1.27,7.91c.63,12.46,1.54,24.91,2.36,37.36q1.75,26.37,3.51,52.75c.9,13.74,1.72,27.48,2.61,41.21.09,1.37.38,2.73.51,3.62Zm69.22,13.61c0-1.62.1-2.88,0-4.13q-1.56-17.86-3.18-35.72c-1.5-16.64-3.07-33.27-4.48-49.92-.83-9.78-2.41-19.38-6-28.55a27,27,0,0,0-3.21-6.11c-2.47-3.33-5.53-3-7,.86-1.81,4.87-2.44,9.85-.6,15a43.21,43.21,0,0,1,2.2,10.13c1.23,12.66,2.22,25.35,3.3,38q1.85,21.51,3.7,43c.41,4.71.87,9.42,1.32,14.34Zm59.43,12.37c0-1.67.09-2.7,0-3.7-.77-7.55-1.58-15.1-2.38-22.64-2-19.18-3.9-38.38-6.18-57.54-.69-5.82-2.39-11.55-3.87-17.26a16.67,16.67,0,0,0-2.75-5.47c-.74-1-2.31-2.2-3.32-2s-1.77,1.86-2.54,2.95a2.94,2.94,0,0,0-.38,1.48c-.18,3.34-.72,6.71-.43,10,1.11,12.3,2.47,24.57,3.78,36.85q2.13,19.93,4.34,39.88c.57,5.21,1.17,10.41,1.76,15.64ZM201.18,580c2.77.3,4.5.21,6,.7,3,1,4.91,0,7-2.28q27-30.21,54.26-60.16c2.15-2.36,3.33-4.66,3.07-7.86-.24-2.83.26-5.72-.18-9.37C247.79,527.6,224.58,553.32,201.18,580Zm338.15-28.24c-3-3.76-6.29-5.74-10.41-5a17.29,17.29,0,0,0-14.86,17.47c.69,15.17,1.13,30.35,1.67,45.53.28,7.72.54,15.43.85,23.15.07,1.73.28,3.46.44,5.31l7.64-1.26c.08-.87.18-1.38.17-1.88q-.26-13.32-.55-26.64c-.3-13-.71-26-.91-39-.14-8.71,4.23-14.35,12.56-16.7ZM837.17,830.82c-.6-5.28-1.1-9.88-1.65-14.47-1.68-14.18-3.32-28.36-5.12-42.52q-1.7-13.38-3.86-26.71a44.93,44.93,0,0,0-2.39-8.12c-.54-1.5-1.07-3.58-3.2-3.29s-2.14,2.38-2.43,4a19,19,0,0,0-.36,5c.76,9,1.55,17.94,2.51,26.89,1.67,15.6,3.46,31.18,5.22,46.78.42,3.66.9,7.32,1.37,11Zm-477-339.28c-2.69-4.2-5.34-5.45-9.38-4.56-6.34,1.39-12.09,8.22-12.23,14.72q-.68,32.4-1.25,64.8a25.42,25.42,0,0,0,.26,2.82l9.29-2c0-4.83,0-9.45,0-14.07.13-14.14.39-28.29.4-42.44,0-8.92,3.61-15.32,12.05-18.71A5.85,5.85,0,0,0,360.17,491.54ZM246.71,611.3c-3.54-4.33-7-5-11.27-2.44A13.15,13.15,0,0,0,229,619.68c-.41,5.52-.62,11.05-.92,16.57q-1.32,24.07-2.64,48.16a6.35,6.35,0,0,0,.35,1.54l8.74-1.47c.2-1.84.41-3.24.49-4.64.62-11.44,1.21-22.87,1.84-34.3.43-8,.95-15.92,1.39-23.89a10.22,10.22,0,0,1,4.87-8.31C244.16,612.64,245.31,612.09,246.71,611.3ZM359.35,983.46v-10c-1.56.2-2.82.4-4.09.53-5.35.54-10.7,1.54-16.05,1.5-17.85-.12-35.7-.61-53.56-.93a14.66,14.66,0,0,0-2.51.38l.1,1,60.26,2.19V985ZM771,694.48c3.84.5,5.63,3.3,7.19,6.23a35.06,35.06,0,0,1,2.94,6.68c2.65,9.26,5.14,18.55,7.63,27.85.6,2.23,1,4.52,1.45,6.78a1.56,1.56,0,0,0,2.08,1.39c-.4-1.68-.79-3.13-1.1-4.6-1.62-7.53-2.9-15.15-4.94-22.56a98.66,98.66,0,0,0-6.1-15.77c-1.16-2.45-3.38-4.46-5.35-6.43C773.83,693.07,772.32,692.54,771,694.48Zm64.06,66.91c-1.68-8-3-15.42-4.85-22.73a117.7,117.7,0,0,0-4.66-14.27,23.64,23.64,0,0,0-3.92-6.11c-1-1.21-2.48-1.79-4.08.08,3,.71,4.47,2.87,5.52,5.23a72.34,72.34,0,0,1,4.16,10.77c2,7.82,3.69,15.76,5.49,23.65C833,759.17,832.66,760.64,835.06,761.39ZM344.57,855.45l.8,0c.13-5.49.27-11,.41-16.51l9.75-1.5-.07-.58-10.89.88Zm-1.15,51.14c-.22,7.59-.43,15-.65,22.35l.67,0q.6-10.29,1.2-20.54l8.14-1.26-.1-.59Zm21.19-68.53,4.83-1.59-.11-.45-5.79.4V859h.32C364.11,852.14,364.35,845.24,364.61,838.06ZM216.94,694.69l.25,1.31,20.37-3.71-.13-.76ZM362.76,906.51v18.11h.31c.22-5.45.43-10.89.65-16.35l6.38-1.5-.06-.27Zm-39.2-84.84,8.79-2-.09-.48-9.64.84v8.11l.35,0ZM784,831.54c4,2.09,11,3.37,13.12,2.08Zm4.11-5.51,0,.69c3.48.64,7,1.26,10.44,1.94,1.88.37,1.89-.57,1.65-1.46ZM671.58,809.55l.09-1c-3.47-.6-6.94-1.21-10.42-1.77a12.69,12.69,0,0,0-2.33.22C663.72,808.12,667.52,809.61,671.58,809.55Zm51,42.9c2.08,3.77,1.3,8.14,2.75,12-.11-3.56-.35-7.11-.6-10.66C724.63,852.32,723.72,852.2,722.58,852.45Zm109.85-20.19,0,.43c1.71.46,3.42.92,5.13,1.36,3.44.9,3.44.89,6,0Zm-43.07-2.76c7.56,2.84,7.56,2.84,9.41,1.46Zm-48-11.93c-1.28-2.49-3.05-2.84-7-1.79Zm-19.71,20.55,2,4.68C724.2,838.69,724.2,838.69,721.64,838.12Zm-64.68-32-.3.16c.16.09.31.26.47.26s.31-.17.46-.26ZM286.71,427c0,.08,0,.2.07.24a1,1,0,0,0,.31.06l-.08-.41Zm2.55-.9-.29.18.17.27.44-.32Zm430.6,390.4a1,1,0,0,0,.29.08s.06-.14.1-.21a1.15,1.15,0,0,0-.29-.08S719.89,816.38,719.86,816.46ZM553.16,541.3l-.19-.24c-.07.07-.2.14-.2.22s.11.16.17.24Z" transform="translate(-144.92 -19.56)"/><path class="cls-3" d="M144.92,972.82l41.61,2.57v3.4c-5.62.57-11.09,1.15-16.56,1.68-5.76.56-11.52,1.06-17.27,1.63-2.58.25-2.71.69-1.49,3a6.35,6.35,0,0,1,.61,2.83c0,1.91-.19,3.82-.32,5.95a14.49,14.49,0,0,0,2.25.48c17.2.85,34.4,1.64,51.61,2.5q34.84,1.74,69.7,3.56,17.13.87,34.27,1.67l20,.93a1.56,1.56,0,0,1,.06.68H144.92Z" transform="translate(-144.92 -19.56)"/><path class="cls-4" d="M329.42,1003.72a1.56,1.56,0,0,0-.06-.68l12.42.68Z" transform="translate(-144.92 -19.56)"/><path class="cls-5" d="M427.37,313.05c-5.87-.59-11.74-1.16-17.61-1.79-2.94-.32-5.87-.73-8.79-1.17a16,16,0,0,0-7.93.85c-14.43,5.05-28.9,10-43.36,15-1.07.37-2.16.69-3.48,1.11a7.24,7.24,0,0,1-.34-1.57q1.29-26.22,2.61-52.42.48-9.82.93-19.66.86-18.7,1.71-37.4c.2-4,2.15-7.38,4.16-10.65,4.35-7,10.27-11.79,18.94-12.18a1.89,1.89,0,0,0,.66-.31c-.79-5.37-5.54-8.68-11.16-7.72a21.38,21.38,0,0,0-10,4.63,34,34,0,0,0-10.74,15.74c-.95,2.84-.81,6.09-.94,9.16-.63,15.17-1.18,30.34-1.77,45.5q-1.26,32.21-2.54,64.41c-.07,1.78-.29,3.56-.45,5.56-5.17,1.8-10.26,3.55-15.32,5.35-3.14,1.12-6.22,2.42-9.39,3.46-2.36.78-4.44,1.74-5.35,4.29V338.9l5-2.3c.28-3.71.61-7.41.83-11.12.88-15.15,1.7-30.31,2.6-45.46,1.16-19.52,2.39-39,3.56-58.54.62-10.15,1.07-20.3,1.8-30.43a14.09,14.09,0,0,0-2.23-9.49,12.44,12.44,0,0,1-1-2.09l1.68,0,1.51,1.72a9.22,9.22,0,0,0,.58-1.78c.35-5.13.58-10.27,1-15.4a8,8,0,0,1,1.46-4.18c14-17.32,31.3-29.61,53.53-34,10-2,19.93-1.32,29.88.53,10.86,2,21.72,4.06,32.64,5.76,9.33,1.47,17.26,5.67,24.44,11.53,9.44,7.71,16.29,17.44,21.72,28.24,1.9,3.77,3.61,7.63,5.48,11.63l3.67-2.84a12.85,12.85,0,0,1-.71,2.28c-2.2,3.81-2.58,7.89-2.47,12.24.46,17.88.67,35.77,1,53.66q.79,44.58,1.64,89.16c.11,5.76.38,11.51.59,17.67a9.51,9.51,0,0,1-2.21-.88c-3.87-3-7.68-6.05-11.57-9a3.38,3.38,0,0,1-1.61-3.24c0-.38,0-.77,0-1.15q-.48-41.5-1-83-.19-15.82-.55-31.65a39.16,39.16,0,0,0-4.1-16.72,22.08,22.08,0,0,0-8.32-9.43c-4.14-2.5-7.26-1.26-8.46,3.34-.33,1.23-.45,2.51-.67,3.78,7.38,5.36,9.95,12.86,10,21.51q.38,50,.73,100c0,1.52,0,3,0,5.06a22.28,22.28,0,0,1-2.55-1.44c-6.7-5.2-13.34-10.5-20.11-15.62a12.29,12.29,0,0,0-4.81-2.06c-3-.61-6.11-.81-9.16-1.24a27.86,27.86,0,0,1-2.93-.73q.17-26.25.32-52.51c0-5.14.14-10.28.21-15.42q.1-13.59.2-27.17c.1-14,.17-28,.31-42.06a6,6,0,0,0-3.14-5.76,11.8,11.8,0,0,0-7.82-1.44c-2.62.41-3.75,1.71-4,3.8,2-.44,4.26-1.48,6.39-1.29,5.12.48,7.5,3.58,7.47,8.88q-.1,18.9-.26,37.8l-.24,27.19Q427.48,279.11,427.37,313.05Zm-94.28-112.3a102.66,102.66,0,0,0-2.81,9.89c-.38,2-.65,3.63-3.85,4.22,1.55.75,2.14,1.29,2.69,1.25,1.08-.08,1.69-.72,1.95-2,.87-4.12,1.95-8.21,2.94-12.31a50.58,50.58,0,0,1,20.64-23.71c7.52-4.46,15.37-6.34,23.89-3.14,1.36.91,2.6,2.07,4.63,1.77l-3.58-2.68a16.43,16.43,0,0,0-12.37-2.78A33.37,33.37,0,0,0,355,175.63C344.81,181.46,337,189.41,333.09,200.75ZM488.84,236.9l-2.72-14.38c-2.2-11.8-7.68-22-15.36-31.09a34,34,0,0,0-6.45-5.41,8,8,0,0,0-6.65-1.18,8.1,8.1,0,0,0-1.93,1,13,13,0,0,1,10.46,3.72,59.32,59.32,0,0,1,5.44,5.43,56.48,56.48,0,0,1,9.77,17.82,95.11,95.11,0,0,1,4.92,20.58C486.49,234.84,486.34,236.64,488.84,236.9Z" transform="translate(-144.92 -19.56)"/><path class="cls-6" d="M496.77,405.73c-1.36-.92-2.75-1.81-4.09-2.76Q467.81,385.45,443,367.9c-3.15-2.29-6.28-4.61-9.46-6.86-.32-.22-.91-.06-1.38-.08v0l-.78-.79h0l-.79-.79h0l-1.56-.78,0,0-.8-.79,0,0-.84-.71-3-1.5-3.19,1.45.05,0-2.37.8.05,0-2.36.79,0,0-2.36.8.05,0-2.36.8,0,0-2.36.8,0,0-2.35.79,0,0-9.27,3q-28.78,9.69-57.58,19.39L280,404.41c-.73.24-1.44.54-2.15.82l-1-1c10-5.59,19.92-11.22,29.95-16.72a4.91,4.91,0,0,0,3-4.41c.56-8.34,1.27-16.66,1.94-25,.15-1.92.36-3.83.56-6,1.07-.43,2.1-.9,3.16-1.28q39.06-13.77,78.1-27.57a14.44,14.44,0,0,1,6.8-.71q18.15,2.34,36.31,4.55a11.22,11.22,0,0,1,5.91,2.49c16.52,13.3,33,26.61,49.7,39.74a9,9,0,0,1,3.85,8.13c-.17,7.71.05,15.44.18,23.15a22.74,22.74,0,0,0,.65,3.62C496.9,404.73,496.83,405.23,496.77,405.73Z" transform="translate(-144.92 -19.56)"/><path class="cls-7" d="M335.49,128.47c0-1.93.12-3.86,0-5.78-.5-11,4.63-18.71,14.82-22.79,13.12-5.24,26.18-10.63,39.25-16a41.53,41.53,0,0,0,5.2-2.52,11.1,11.1,0,0,0,2.47-2.28c1.65-1.88,3.22-3.84,4.83-5.76l.79.34c.27-7.39.54-14.78.85-23.2-4.91,3.53-10.27,4.62-13.48,9.16-1.42,2-3.83,1.47-6.46-.54-1.83-1.39-1.68-2.69.26-4.83a11.25,11.25,0,0,0,1.66-2.07c.87-1.57,2.15-2.31,3.83-1.79s2.73-.11,4-.85c3.31-1.94,6.64-3.86,9.92-5.75,0-4.06.18-7.92-.09-11.75-.11-1.53-1.23-3-1.93-4.56,1-1.71,1.92-3.53,3-5.21,1.57-2.37,3-2.42,4.92-.28a20.84,20.84,0,0,1,2.09,2.76c.3.49.6,1.44.36,1.73-2.62,3.2-1,6.93-1.43,10.39a19,19,0,0,0,.16,2.82c4.7-2.88,10.13-3.62,13.52-8.16,1.37-1.84,6.71-.9,7.74,1.11.78,1.55-2.77,8.78-4.49,8.6-6.59-.71-11.05,4.11-17.13,5.76,0,4.48,0,8.7,0,12.93q-.06,5.4-.3,10.8c-.08,1.88.12,3.44,1.81,4.73.94.73,1.39,2.1,2.2,3.41,5.61,1,11.39,2.25,17.22,3.14A6.46,6.46,0,0,1,436.35,86a14.87,14.87,0,0,0,2.6,3.73q14,14.43,28,28.75a15.37,15.37,0,0,0,2.23,2.12c6.26,4.2,9.14,10.24,9.74,17.56.05.64.15,1.28.23,1.92h-1.52c-5.16-6.6-10.71-12.84-17.46-17.89a76.66,76.66,0,0,0-6.42-4.25,6.11,6.11,0,0,0-2.88-.92c-11-.2-21.63-2.91-32.35-4.94-5.3-1-10.52-2.38-15.81-3.46-12.2-2.48-24-.7-35.63,3.35-10.91,3.81-20.65,9.75-29.91,16.56Z" transform="translate(-144.92 -19.56)"/><path class="cls-8" d="M344.85,128.45c11.43-7.85,23.58-14.07,37.41-16.47a46.53,46.53,0,0,1,16.84.49c14.38,2.74,28.71,6,43.22,7.62,10.67,1.18,18.54,6.2,25.72,13.23,2.93,2.88,5.55,6.07,8.25,9.17a15.5,15.5,0,0,1,1.44,2.44l-.69.62c-.77-.67-1.57-1.3-2.29-2-3.72-3.73-7.25-7.67-11.17-11.17a65,65,0,0,0-9.1-6.45,22.94,22.94,0,0,0-9.05-3c-15-2.13-30-4.46-45-6.75a17,17,0,0,1-3.75-.84c-6.18-2.47-12.36-1.64-18.56-.18-10.12,2.36-19.31,6.93-28.27,12-1.33.76-2.7,1.47-4.05,2.2Z" transform="translate(-144.92 -19.56)"/><path class="cls-8" d="M357.23,328.59a31,31,0,0,1,3.11-1.42c11.43-3.92,22.86-7.85,34.33-11.63a13,13,0,0,1,5.23-.38,50.88,50.88,0,0,1,11,2.25c-3.59,0-7.18-.12-10.76,0a25.69,25.69,0,0,0-6.41,1c-12.13,3.77-24.21,7.68-36.32,11.54C357.32,329.54,357.27,329.07,357.23,328.59Z" transform="translate(-144.92 -19.56)"/><path class="cls-8" d="M469.78,343.36c-8.29-6.06-16.53-12.18-24.89-18.14a19.91,19.91,0,0,0-5.82-2.74c-4.21-1.27-8.51-2.25-12.67-3.77,4.58.5,9.18.92,13.74,1.55a9.26,9.26,0,0,1,4.27,1.46c8.85,6.79,17.6,13.73,26.39,20.62Z" transform="translate(-144.92 -19.56)"/><path class="cls-9" d="M223.73,987.13,288.48,989a4.24,4.24,0,0,1,.74.19c0,.47,0,.94.07,1.41-2.17,0-4.35.1-6.52,0q-29.53-1.22-59.08-2.48Z" transform="translate(-144.92 -19.56)"/><path class="cls-10" d="M477.65,140.06h1.52c4,5.76,8.23,11.42,12.06,17.32,2.51,3.86,4.49,8.06,6.72,12.11,1.26,2.3,1.07,4.35-1,6.09l0,0c.4-3.47-1-6.37-2.59-9.36a182.33,182.33,0,0,0-15.83-24.54A11.59,11.59,0,0,1,477.65,140.06Z" transform="translate(-144.92 -19.56)"/><path class="cls-11" d="M427.37,313.05q.11-33.94.2-67.9l1.11,0c-.07,5.14-.17,10.28-.21,15.42q-.18,26.26-.32,52.51Z" transform="translate(-144.92 -19.56)"/><path class="cls-12" d="M335.49,128.47l1.7,0-15.51,13.2c-3.91,3.33-3.91,3.33-5.68,7.37-.28-4.16-.2-4.48,2.82-7C324.35,137.54,329.93,133,335.49,128.47Z" transform="translate(-144.92 -19.56)"/><path class="cls-11" d="M326.39,413.65l23.89-7.79,0,1.44-22.91,7.21Z" transform="translate(-144.92 -19.56)"/><path class="cls-13" d="M419.75,991.35c-.62,1.45-1.51,2-2.89.85l-1.78-.83,0,0-2.34-.79,0,0-3.88-1.55h0L406,988.3l-1.67-.53L400.41,986l0,0-.84-1,.05-1.39Z" transform="translate(-144.92 -19.56)"/><path class="cls-13" d="M429,998.22c-1-2.36-3.43-2.17-5.27-3-1.52-.68-2.74-1.3-2.35-3.25l15.81,5.65C434.41,998.75,431.7,998.41,429,998.22Z" transform="translate(-144.92 -19.56)"/><path class="cls-12" d="M357.23,328.59c0,.48.09,1,.13,1.43l-22.56,7.31c0-.32.05-.64.08-1,6.83-2.48,13.65-5,20.49-7.45A11.3,11.3,0,0,1,357.23,328.59Z" transform="translate(-144.92 -19.56)"/><path class="cls-14" d="M392,913.21a10.68,10.68,0,0,1,7.67,0,7.08,7.08,0,0,1-2,1.47,25,25,0,0,1-3.84.57c-1.73,4.36-.79,8.91-1.86,13.26Z" transform="translate(-144.92 -19.56)"/><path class="cls-10" d="M319.45,179.43l-1.68,0a74.83,74.83,0,0,1-4.64-8.27c-.59-1.4-.05-3.28,0-4.85,1.43,3,2.78,5.84,4.14,8.67C318,176.5,318.71,178,319.45,179.43Z" transform="translate(-144.92 -19.56)"/><path class="cls-13" d="M422.89,362.5c-.24-1-.49-1.94-.85-3.38l-14.77,4.05.12-1.43,0,0,2.35-.79,0,0,2.36-.8,0,0,2.36-.8-.05,0,2.36-.8,0,0,2.36-.79-.05,0,2.37-.8-.05,0h2.44c0,1.81,0,3.62,0,5.43Z" transform="translate(-144.92 -19.56)"/><path class="cls-10" d="M344.85,128.45l1,.93-12.46,8.44-1.36-.17Z" transform="translate(-144.92 -19.56)"/><path class="cls-15" d="M218.17,914.76l-33.11.12a3.59,3.59,0,0,0,0-.73l33.15.05A2.1,2.1,0,0,1,218.17,914.76Z" transform="translate(-144.92 -19.56)"/><path class="cls-16" d="M469.78,343.36l1-1c4.18,2.8,7.69,6.38,11.74,9.34l-.77,1Z" transform="translate(-144.92 -19.56)"/><path class="cls-15" d="M432.12,361c.47,0,1.06-.14,1.38.08,3.18,2.25,6.31,4.57,9.46,6.86-.92,0-2,.36-2.72,0-2.53-1.55-4.92-3.34-7.35-5.05l-.84-1,0,.05Z" transform="translate(-144.92 -19.56)"/><path class="cls-4" d="M334.88,336.37c0,.32-.05.64-.08,1l-16.15,5.77-.29-.75c2.49-1.6,5.43-2.13,8.16-3.13S332.09,337.32,334.88,336.37Z" transform="translate(-144.92 -19.56)"/><path class="cls-16" d="M276.87,404.19l1,1-3.19,1.92c-.4,3-.84,6.22-1.28,9.46l-.33,0V406Z" transform="translate(-144.92 -19.56)"/><path class="cls-10" d="M479.32,146.76l6.62,9.4-.75.73-6.72-9.12Z" transform="translate(-144.92 -19.56)"/><path class="cls-13" d="M501.88,362.7l-7.25-6.94c2-1,2.61.52,3.47,1.18a30,30,0,0,1,3.08,2.89C502,360.68,503.39,361.52,501.88,362.7Z" transform="translate(-144.92 -19.56)"/><path class="cls-4" d="M407.39,361.74l-.12,1.43c-2.64.75-5.27,1.54-7.93,2.22-.32.08-.81-.45-1.22-.69Z" transform="translate(-144.92 -19.56)"/><path class="cls-13" d="M432.12,361l0,.86-3.92-.93c-.27,1-.57,2-.86,3a1.33,1.33,0,0,0-.56.15c0-2.17-1.11-4.45.6-6.46l.92.28,0,0,.8.79,0,0,1.56.78h0l.79.79h0l.78.79Z" transform="translate(-144.92 -19.56)"/><path class="cls-10" d="M496.77,405.73l.19-1.51,6.15,4.69-.87.86Z" transform="translate(-144.92 -19.56)"/><path class="cls-4" d="M489.15,162.55l-4-5.66.75-.73,3.4,6.2Z" transform="translate(-144.92 -19.56)"/><path class="cls-17" d="M502.24,409.77l.87-.86c1.7,1.17,3.51,2.23,4.68,3.95l-.57.7Z" transform="translate(-144.92 -19.56)"/><path class="cls-17" d="M332,137.65l1.36.17L328,141.75c-.13-.15-.26-.3-.38-.46Z" transform="translate(-144.92 -19.56)"/><path class="cls-4" d="M423.7,357.13h-2.44l3.19-1.45Z" transform="translate(-144.92 -19.56)"/><path class="cls-4" d="M422.89,362.5l.8.06.42,1.82-.75.19C423.2,363.88,423.05,363.19,422.89,362.5Z" transform="translate(-144.92 -19.56)"/><path class="cls-16" d="M484.53,354.37,483,353.1l.35-.46,1.7,1.36A.47.47,0,0,0,484.53,354.37Z" transform="translate(-144.92 -19.56)"/><path class="cls-9" d="M325.56,143.15l-1.42,1.68a3.57,3.57,0,0,0-.28-.27l1.71-1.4Z" transform="translate(-144.92 -19.56)"/><path class="cls-4" d="M487.07,355.42l1.57,1.5-.26.31-1.72-1.39C486.8,355.71,486.93,355.56,487.07,355.42Z" transform="translate(-144.92 -19.56)"/><path class="cls-15" d="M426.75,364.08a1.33,1.33,0,0,1,.56-.15,10.91,10.91,0,0,1-.33,1.28c0,.05-.4,0-.62,0Z" transform="translate(-144.92 -19.56)"/><path class="cls-4" d="M490,357.93l-1.6-.7.26-.31,1.37,1Z" transform="translate(-144.92 -19.56)"/><path class="cls-15" d="M493.07,360.25l-1.63-.7.24-.23,1.42.9Z" transform="translate(-144.92 -19.56)"/><path class="cls-17" d="M326.33,142.38l1.29-1.08.38.45-1.65.64Z" transform="translate(-144.92 -19.56)"/><path class="cls-4" d="M486.66,355.84l-.35-.71.76.29C486.93,355.56,486.8,355.71,486.66,355.84Z" transform="translate(-144.92 -19.56)"/><path class="cls-4" d="M485.06,354l.3.56-.83-.2A.47.47,0,0,1,485.06,354Z" transform="translate(-144.92 -19.56)"/><path class="cls-10" d="M496.94,175.59l-.4.5.43-.46Z" transform="translate(-144.92 -19.56)"/><polygon class="cls-4" points="345.6 144.84 345.42 144.91 345.45 144.72 345.6 144.84"/><path class="cls-4" d="M489.34,162.36l.44.46-.63-.27Z" transform="translate(-144.92 -19.56)"/><path class="cls-8" d="M479.32,146.76l-.85,1C478.12,146.91,478.26,146.45,479.32,146.76Z" transform="translate(-144.92 -19.56)"/><path class="cls-9" d="M321.69,146.24l-.16.34.18-.32Z" transform="translate(-144.92 -19.56)"/><path class="cls-8" d="M478.31,146l-.28.28a3,3,0,0,1-.24-.52c0-.07.16-.17.24-.26Z" transform="translate(-144.92 -19.56)"/><path class="cls-9" d="M321.71,146.26l.34-.33c0,.07,0,.17-.07.2a1.25,1.25,0,0,1-.29.11Z" transform="translate(-144.92 -19.56)"/><path class="cls-9" d="M324.14,144.83l-.54.26.26-.53A3.57,3.57,0,0,1,324.14,144.83Z" transform="translate(-144.92 -19.56)"/><path class="cls-17" d="M326.35,142.39l-.79.76h0l.76-.78Z" transform="translate(-144.92 -19.56)"/><polygon class="cls-17" points="364.09 394.42 363.83 394.48 363.87 394.27 364.09 394.42"/><path class="cls-13" d="M432.05,361.77l.84,1Z" transform="translate(-144.92 -19.56)"/><path class="cls-15" d="M493.1,360.22l.34.4c-.08,0-.21,0-.25-.06a1,1,0,0,1-.12-.31Z" transform="translate(-144.92 -19.56)"/><path class="cls-15" d="M491.44,359.55l-.69-.81.08-.08.84.66Z" transform="translate(-144.92 -19.56)"/><path class="cls-4" d="M490,357.9l.82.76-.08.08-.77-.81Z" transform="translate(-144.92 -19.56)"/><path class="cls-15" d="M428.27,357.9l-.92-.28a.4.4,0,0,1,.08-.43Z" transform="translate(-144.92 -19.56)"/><path class="cls-18" d="M504.07,461.53l56,28.66a75.61,75.61,0,0,1,10.82,6.39c-3.93.81-7.84,1.75-11.8,2.32-1.1.16-2.41-.71-3.55-1.26Q521,480.92,486.43,464.16c-1.24-.61-2.51-1.13-4.31-1.94,3.22,137.09,6.43,273.68,9.64,410.69l-4.92.84-1.38-.59c-.21-6.3-.47-12.59-.6-18.89-.39-19.16-.71-38.33-1.09-57.49q-1.2-61.54-2.44-123.08-.74-36.86-1.5-73.7-1.21-60.37-2.44-120.76c0-1.8-.05-3.59-.07-5.39,2.39-2.34,1.95-5.22,1.55-8.1l.23-12.88a6.75,6.75,0,0,1,2,.17c2.72,1.13,5.4,2.36,8.1,3.55l5.41,1.78,0,0,1.59.79-.05,0,1.61.8-.07-.05.83.93c1.08.61,2.14,1.29,3.26,1.83S503.71,462.75,504.07,461.53Z" transform="translate(-144.92 -19.56)"/><path class="cls-19" d="M673.05,801.33c-.63-9.75-1.23-19.5-1.9-29.24-.63-9.11-1.34-18.2-2-27.3q-1.85-25.57-3.66-51.15c-.4-5.64-.74-11.29-1.1-16.93-.09-1.4.11-2.9-1.44-3.72l.77-1.35q-.11-3.17-.2-6.33-1.21-17.49-2.43-35c-.61-8.58-1.3-17.16-1.91-25.75-.59-8.33-1.18-16.66-1.65-25a4,4,0,0,0-2.24-3.65c-5.81-3.28-11.51-6.76-17.37-10a4.66,4.66,0,0,1-2.78-4.87c.15-3.07,0-6.15,0-9.23,2.45.59,17.43,10.41,24.17,15.82l-.29.37h-1.38c-.07.25-.13.51-.2.76l2.38.79,0,0,.71,1.24c.74,2.72,1.48,5.43,2.21,8.15l.48,0-1.05-8.57a2.36,2.36,0,0,0,.42-.47c1.85.8,1.49,2.58,1.62,4,.64,7.17,1.16,14.35,1.73,21.53q1.83,22.88,3.68,45.75c1.14,14.49,2.24,29,3.39,43.46s2.38,29,3.55,43.44c.86,10.64,1.68,21.28,2.53,31.92q1.81,22.68,3.65,45.37c.88,11,1.71,22,2.59,33.07,1.17,14.61,2.38,29.22,3.55,43.83.43,5.36.79,10.72,1.19,16.24h-3.24c-.78-7.74-1.55-15.35-2.32-23,0-.48.06-1,.1-1.43,1.34-.09,1.86-.7,1.16-2.26l-7.57-.44q-2.48-33.1-4.68-66.09C673.37,804,673.21,802.66,673.05,801.33Z" transform="translate(-144.92 -19.56)"/><path class="cls-20" d="M743.15,638.37c1.29,12,2.61,24,3.88,36q2.24,21.11,4.4,42.22c1.14,11,2.23,22,3.37,33q2.16,20.73,4.35,41.45c1.14,11,2.23,22,3.37,33q2.15,20.73,4.33,41.44,1.57,15.16,3.09,30.33c0,.22-.16.46-.32.9h-3.07c-.42-7.33-2.12-14.45-1.41-22l-5.81-.26c-.45-3.94-.94-7.85-1.33-11.76q-3.06-30.9-6.09-61.82c-1.66-17-3.26-34.06-4.93-51.09s-3.41-33.78-5.08-50.68c-1.41-14.33-2.76-28.68-4.14-43-.82-8.45-1.71-16.89-2.44-25.35a6.58,6.58,0,0,0-3.49-5.45c-15.12-9.54-30.12-19.26-45.25-28.79-2.24-1.41-3.21-2.93-3-5.56s0-5.39,0-8.45a11.07,11.07,0,0,1,2.25.82q13.59,9.2,27.13,18.44c.83.58,1.58,1.29,2.37,1.93,0,.38-.07.94.14,1.12,2.21,1.89,4.43,3.77,6.76,5.52.21.16,1.12-.61,1.71-.94l1.53,1.3c-.16.5-.32,1-.47,1.52l.63.16c.09-.53.17-1.06.26-1.6l1.84,1.23c-.09.72-.19,1.44-.34,2.56l2.66-1h0l.34,2.33,1.19.83,0,0,1.57.8,0,0,1.56,1.56h0c1,1.26,1.87,2.71,3.86,2.33h0c.57,3.33,1.13,6.65,1.7,10l.75,6.81c.29,1.87.57,3.74,1,6.32C742.46,641.91,742.8,640.14,743.15,638.37Z" transform="translate(-144.92 -19.56)"/><path class="cls-18" d="M195.05,890.07l-6.26.31c-.41,6.45-.81,12.81-1.23,19.47l-3.84.35c5.44-105.24,13.22-210,19.76-315.26l-15.38,3.31c-2.51.55-5,1-7.51,1.7a21.42,21.42,0,0,0-3.65,1.9c-3.94-2-4.39-2.45-5.7-5.67,1.16-.38,2.3-.82,3.48-1.13,8.07-2.13,16.2-4.08,24.21-6.42a15,15,0,0,1,10.1.25c1.18.46,2.39.86,3.69,1.32-2,4.43-3.5,8.74-3.75,13.6-1.05,20.7-2.42,41.37-3.65,62.05-.85,14.26-1.65,28.52-2.5,42.78q-1.81,30.06-3.66,60.12c-.58,9.5-1.11,19-1.68,28.52q-1.86,31-3.74,62c-.38,6.42-.68,12.85-1.05,19.28-.13,2.29-.36,4.58-.5,6.38-1.53,2-5.09.09-5.07,4.14l8,.1Z" transform="translate(-144.92 -19.56)"/><path class="cls-21" d="M315.06,446.62a16.48,16.48,0,0,1,2.65-1.34q34.89-10.41,69.8-20.76c.72-.21,1.48-.34,2.53-.58v9.55L310.4,455.85c-.32,7.33-.66,14.37-.94,21.42q-1.92,48.19-3.8,96.41-.78,19.67-1.54,39.33-1.62,42-3.23,84.07c-.06,1.52,0,3,0,5L324,699.52l.75,1.3-30.59,4.6c0-1.39,0-2.48,0-3.56q1.08-24.3,2.19-48.59,1.75-37.78,3.55-75.57c.62-13.5,1.14-27,1.75-40.49q1.5-33.75,3.06-67.48c.28-6.17.53-12.34.81-18.51.05-1-.2-2.15,1.25-2.43l.23.25c-.17,1.8-.35,3.59-.52,5.39v9.29h.63v-9.21l1.09-4,4.86-2.11-3.74-.18-.1-.15,5.87-1.49-1.81,1.48C314.68,448.36,315.8,448.58,315.06,446.62Z" transform="translate(-144.92 -19.56)"/><path class="cls-3" d="M329.46,787.48l42.88-3.75c.15,1.44.28,2.67.44,4.26l-57,5.47c-1.17,53.69-2.33,107-3.5,160.61H299.54c0-1.27,0-2.4,0-3.52q1.13-37.6,2.28-75.21.75-24.89,1.53-49.76c.06-1.92.3-3.83.45-5.75.55-.56,1.39-1,1.57-1.7a11.43,11.43,0,0,0,0-3c.22-3.07.44-6.13.67-9.2.44-4.76.89-9.52,1.34-14.33l10.24-1.18,13.67-1.53Z" transform="translate(-144.92 -19.56)"/><path class="cls-19" d="M624.74,507c1.82,1.27,3.19,2.19,4.52,3.16Q734.2,586.54,839.15,662.92c2,1.45,4.2,2.61,6.53,4.05l-4,3.76c-1-.66-2-1.24-2.9-1.88Q733.43,594.43,628,520.05c-2.22-1.57-3.43-3.22-3.27-5.94C624.84,512,624.74,509.78,624.74,507Z" transform="translate(-144.92 -19.56)"/><path class="cls-22" d="M664.61,797.87l-13.29-2c-.13-.89-.42-2.25-.51-3.62-.89-13.73-1.71-27.47-2.61-41.21q-1.71-26.37-3.51-52.75c-.82-12.45-1.73-24.9-2.36-37.36A23.19,23.19,0,0,1,643.6,653c.78-2.48,2.46-2.92,4.47-1.32a10.52,10.52,0,0,1,3.34,4.1,40.92,40.92,0,0,1,2.89,10.33c1.28,13.31,2.18,26.66,3.23,40q1.79,22.51,3.56,45,1.35,17.5,2.64,35C664,790,664.3,793.78,664.61,797.87Z" transform="translate(-144.92 -19.56)"/><path class="cls-18" d="M796.41,680.08q2.36,19.51,4.7,39,2.55,21.43,5.06,42.89,2.1,17.81,4.17,35.61,2.56,21.84,5.15,43.66,2.5,21.45,5,42.9c.41,3.55.84,7.11,1.28,10.87-2.36.53-3.18-.49-3.35-2.47-.33-4-.68-7.94-1-11.91-.09-1,.09-2.17-1.45-2.21l-.15-.73c1,0,2.17.19,2-1.83l-5.22-.53c-.43-3.39-.91-6.9-1.31-10.41q-3-26.44-6-52.89c-1.66-14.82-3.27-29.64-5-44.46s-3.42-29.63-5.1-44.45-3.3-29.65-4.94-44.47c-.54-4.86-1.14-9.71-1.6-14.57a6.48,6.48,0,0,0-3.42-5.5c-9.57-5.78-19-11.85-28.5-17.7-1.81-1.12-2.84-2.29-2.84-4.54a66.68,66.68,0,0,0-.73-7.09c.29-.25.36-.35.46-.39s.29-.12.37-.06q8.17,5.45,16.32,10.92c0,.68-.2,1.7.16,2,2.14,1.74,4.42,3.31,7,5.16.26-.94.42-1.51.58-2.07l1.53,1.09-.06,1.64,2.33,1.6,0,0c.33,1.19,1,1.86,2.33,1.56h0l.37.79,1.2.77,0,0,1.59.81,0,0,.79.8,0,0,1.57.8,0,0a12.26,12.26,0,0,1,2.48,6.9l1.5,10.7c.43,2.94.85,5.88,1.33,9.15Z" transform="translate(-144.92 -19.56)"/><path class="cls-23" d="M733.83,811.48l-13.92-3c-.45-4.92-.91-9.63-1.32-14.34q-1.87-21.52-3.7-43c-1.08-12.68-2.07-25.37-3.3-38a43.21,43.21,0,0,0-2.2-10.13c-1.84-5.18-1.21-10.16.6-15,1.43-3.85,4.49-4.19,7-.86a27,27,0,0,1,3.21,6.11c3.59,9.17,5.17,18.77,6,28.55,1.41,16.65,3,33.28,4.48,49.92q1.61,17.86,3.18,35.72C733.93,808.6,733.83,809.86,733.83,811.48Z" transform="translate(-144.92 -19.56)"/><path class="cls-3" d="M769.45,900.93,754,902l2.89,43.43H746.72c-.42-2.39-.9-5.08-1.41-8,.49-.27,2.36-.05,1.36-2.45h-7.13c-1.4-11-2.77-21.69-4.13-32.37l.15-1.41c1-.66,1.69-1.71.39-2.33-1.69-.81-1.66-2.18-1.79-3.51-1.39-13.68-2.72-27.37-4.08-41-.81-8.17-1.66-16.35-2.49-24.54-2.72-1.81-6.38-.55-9-2.8,2-1,10.89-.14,16.39,1.54,1.9,15.46,3.83,31.09,5.76,46.79l4.59,1c.55,7.67,1.09,15.3,1.64,23,7.74,1.56,15.16-.06,22.56.22C769.48,900,769.47,900.46,769.45,900.93Z" transform="translate(-144.92 -19.56)"/><path class="cls-24" d="M835.72,687.93q2.14,17.43,4.29,34.84,2.54,20.28,5.11,40.56,2.91,22.95,5.81,45.91,2.51,19.9,5,39.8t5,39.8c.2,1.6.29,3.22.43,4.83-2,.26-2-1-2.09-2-.4-2.92-.68-5.87-1-8.81-.15-1.26-.34-2.51-.55-4.09l-16.65-.6v-.45c2.78,0,5.56.11,8.33,0s5.76.51,8.55-1.25L853,875.43q-1.25-9.88-2.48-19.8Q848,835,845.44,814.29q-2.48-20.1-4.92-40.2-2.57-20.87-5.13-41.73c-1.67-13.65-3.4-27.3-4.91-41-.36-3.22-1.41-5.31-4.39-6.95-6.65-3.64-13-7.82-19.56-11.63-2.07-1.2-3.37-2.48-3.31-5a57.78,57.78,0,0,0-.71-6.87l18.62,12.37c.44.82.68,1.88,1.35,2.42,1.64,1.33,3.49,2.41,5.25,3.6l2.72,1.57,0,0,2.33,1.56h0c.65,3.3,1.31,6.61,2,10C835.06,690.83,835.39,689.38,835.72,687.93Z" transform="translate(-144.92 -19.56)"/><path class="cls-3" d="M793.26,823.85l-12-1.86c-.59-5.23-1.19-10.43-1.76-15.64q-2.19-19.94-4.34-39.88c-1.31-12.28-2.67-24.55-3.78-36.85-.29-3.29.25-6.66.43-10a2.94,2.94,0,0,1,.38-1.48c.77-1.09,1.56-2.81,2.54-2.95s2.58,1,3.32,2a16.67,16.67,0,0,1,2.75,5.47c1.48,5.71,3.18,11.44,3.87,17.26,2.28,19.16,4.15,38.36,6.18,57.54.8,7.54,1.61,15.09,2.38,22.64C793.35,821.15,793.26,822.18,793.26,823.85Z" transform="translate(-144.92 -19.56)"/><path class="cls-20" d="M201.18,580c23.4-26.66,46.61-52.38,70.17-79,.44,3.65-.06,6.54.18,9.37.26,3.2-.92,5.5-3.07,7.86q-27.28,30-54.26,60.16c-2.07,2.31-4,3.25-7,2.28C205.68,580.19,204,580.28,201.18,580Z" transform="translate(-144.92 -19.56)"/><path class="cls-20" d="M539.33,551.74l-3.4,1c-8.33,2.35-12.7,8-12.56,16.7.2,13,.61,26,.91,39q.3,13.32.55,26.64c0,.5-.09,1-.17,1.88L517,638.16c-.16-1.85-.37-3.58-.44-5.31-.31-7.72-.57-15.43-.85-23.15-.54-15.18-1-30.36-1.67-45.53a17.29,17.29,0,0,1,14.86-17.47C533,546,536.35,548,539.33,551.74Z" transform="translate(-144.92 -19.56)"/><path class="cls-20" d="M837.17,830.82l-9.91-1.45c-.47-3.72-1-7.38-1.37-11-1.76-15.6-3.55-31.18-5.22-46.78-1-8.95-1.75-17.92-2.51-26.89a19,19,0,0,1,.36-5c.29-1.59.39-3.69,2.43-4s2.66,1.79,3.2,3.29a44.93,44.93,0,0,1,2.39,8.12q2.15,13.32,3.86,26.71c1.8,14.16,3.44,28.34,5.12,42.52C836.07,820.94,836.57,825.54,837.17,830.82Z" transform="translate(-144.92 -19.56)"/><path class="cls-20" d="M360.17,491.54a5.85,5.85,0,0,1-.86.61c-8.44,3.39-12,9.79-12.05,18.71,0,14.15-.27,28.3-.4,42.44,0,4.62,0,9.24,0,14.07l-9.29,2a25.42,25.42,0,0,1-.26-2.82q.6-32.4,1.25-64.8c.14-6.5,5.89-13.33,12.23-14.72C354.83,486.09,357.48,487.34,360.17,491.54Z" transform="translate(-144.92 -19.56)"/><path class="cls-20" d="M246.71,611.3c-1.4.79-2.55,1.34-3.61,2a10.22,10.22,0,0,0-4.87,8.31c-.44,8-1,15.93-1.39,23.89-.63,11.43-1.22,22.86-1.84,34.3-.08,1.4-.29,2.8-.49,4.64L225.77,686a6.35,6.35,0,0,1-.35-1.54q1.31-24.07,2.64-48.16c.3-5.52.51-11,.92-16.57a13.15,13.15,0,0,1,6.46-10.82C239.72,606.26,243.17,607,246.71,611.3Z" transform="translate(-144.92 -19.56)"/><path class="cls-23" d="M286.21,913.42h6c-.38,13.56-.76,26.87-1.16,40.6l-14.7,1.24c.27-8.56.52-16.72.78-24.88,1.26,0,2.18-.4,2.12-1.89,0-1,0-2-.06-3,.3-3.26.61-6.53.89-9.61l6-1.63Z" transform="translate(-144.92 -19.56)"/><path class="cls-24" d="M616,500.72c1.46.76.86,2.14,1,3.29.21,2.49.37,5,.62,8.42-2.84-1.91-5-3.2-7-4.74a5.77,5.77,0,0,0-5.35-1c-11.66,2.56-23.35,4.95-35,7.4-.5.11-1,.27-1.49.38-2.4.52-5,2.42-6.1-2-.26-1.1-2.7-1.68-4.89-2.94,10-2.33,19.25-4.75,28.7-6.41v.79l-1.65.51a.69.69,0,0,1-.6.3l-2.33.25.13.55,2.15-.85.65-.31,3.26-.41-.09,0,3.94-.81-.07,0,3.92-.79,0,0c1.64-.12,3.3-.13,4.93-.38,3.78-.58,7.54-1.28,11.3-1.93l0,0,1.6.79,0,0,.23.58.58-.58Z" transform="translate(-144.92 -19.56)"/><path class="cls-25" d="M359.35,983.46,343.5,985v-6.9L283.24,976l-.1-1a14.66,14.66,0,0,1,2.51-.38c17.86.32,35.71.81,53.56.93,5.35,0,10.7-1,16.05-1.5,1.27-.13,2.53-.33,4.09-.53Z" transform="translate(-144.92 -19.56)"/><path class="cls-26" d="M552.55,905q20-.8,40.09-1.59c12-.46,23.9-1,35.86-1.26,4.47-.1,9,.35,13.44.64a3.92,3.92,0,0,1,2.65,1.4l-92.06,2.05C552.53,905.78,552.54,905.36,552.55,905Z" transform="translate(-144.92 -19.56)"/><path class="cls-26" d="M485.46,873.16l1.38.59c.05.74.11,1.48.18,2.39,11.79.54,23.4-1,35-.22-1.85,1.88-4.21,1-6.32,1.35a69.31,69.31,0,0,1-6.92.47c-2.19.11-4.38.13-6.56.24s-4.61.35-6.93.48-4.57.2-7.24.3c0,1.73,0,3.11,0,4.49q.14,8.88.28,17.76c0,1.29.2,2.7-1.95,2.74a3.81,3.81,0,0,1-.51-1.27C485.73,892.71,485.6,882.94,485.46,873.16Z" transform="translate(-144.92 -19.56)"/><path class="cls-26" d="M706.22,663.86c1.91-3.31,4.51-4.29,7.52-2.46a20.12,20.12,0,0,1,4.6,4c3.67,4.23,6,9.27,7.88,14.48a143.26,143.26,0,0,1,7,29.18c.27,1.84.64,3.67,1,5.59-2.08.78-2.21-.73-2.49-2.16-1.3-6.68-2.33-13.44-4.06-20a188.9,188.9,0,0,0-6.22-18.61,27.9,27.9,0,0,0-4.12-6.93c-3.31-4.32-5.95-5-11.1-3.17Z" transform="translate(-144.92 -19.56)"/><path class="cls-26" d="M549.09,537.5c-.83-.6-1.66-1.18-2.48-1.79-8.15-6-16.78-7.35-26.05-2.71a38,38,0,0,0-19.1,20.82c-.49,1.25-1,2.49-1.53,3.73l-.83-.19a9.26,9.26,0,0,1,0-1.9c3.18-14.45,18-26.92,32.71-27.32A21.73,21.73,0,0,1,550,536.69Z" transform="translate(-144.92 -19.56)"/><path class="cls-26" d="M358,971.25c-5.45-1.88-10.88-3.85-16.38-5.61a23.06,23.06,0,0,0-6.37-1.14c-19.91-.42-39.83-.74-59.74-1.09,0-.38.05-.76.07-1.14q30.93.16,61.85.36a9,9,0,0,1,3,.36c5.86,2.2,11.69,4.49,17.53,6.75C358,970.25,358,970.75,358,971.25Z" transform="translate(-144.92 -19.56)"/><path class="cls-27" d="M771,694.48c1.32-1.94,2.83-1.41,3.8-.43,2,2,4.19,4,5.35,6.43a98.66,98.66,0,0,1,6.1,15.77c2,7.41,3.32,15,4.94,22.56.31,1.47.7,2.92,1.1,4.6a1.56,1.56,0,0,1-2.08-1.39c-.47-2.26-.85-4.55-1.45-6.78-2.49-9.3-5-18.59-7.63-27.85a35.06,35.06,0,0,0-2.94-6.68C776.63,697.78,774.84,695,771,694.48Z" transform="translate(-144.92 -19.56)"/><path class="cls-11" d="M250.71,595a14.81,14.81,0,0,1-2.22-.46c-5.47-2.09-10.55-1.19-15.46,1.78-7.76,4.7-12.07,11.73-13.88,20.42-.76,3.64-1.23,7.35-1.84,11-.41,2.52-.41,2.52-3.6,2.23-.05-.24-.2-.68-.15-.7,2.24-1.14,2.17-3.23,2.53-5.33A106.6,106.6,0,0,1,219,610.84c2.66-8.71,8.9-14.38,17-17.85,5-2.16,10.3-2,14.71,2.09Z" transform="translate(-144.92 -19.56)"/><path class="cls-27" d="M663.73,671.64,663,673c-2.25-.29-1.75-2.3-2.08-3.62-1.22-4.85-2.07-9.8-3.4-14.62-1.1-3.94-2.6-7.78-4.09-11.6a25.85,25.85,0,0,0-2.61-4.71c-2.15-3.29-4.81-5.75-9.51-4.73.65-2.49,2.25-2.54,3.86-2.14a9.94,9.94,0,0,1,6.12,4.42c2,3.26,4.17,6.57,5.41,10.15,2.18,6.28,3.72,12.79,5.53,19.21C662.7,667.45,663.21,669.54,663.73,671.64Z" transform="translate(-144.92 -19.56)"/><path class="cls-27" d="M346.67,473.94c-13.33,6.28-19.43,17.3-20.65,31.53-.1,1.26-.24,2.52-.38,3.95a19.62,19.62,0,0,1-2.23.6,12,12,0,0,1-1.9,0c-1.65-2.75,1.43-2.21,2.25-3.24a46.19,46.19,0,0,1,5.87-19.39c3.77-6.52,8.84-11.64,16-14.35Z" transform="translate(-144.92 -19.56)"/><path class="cls-11" d="M835.06,761.39c-2.4-.75-2.08-2.22-2.34-3.38-1.8-7.89-3.44-15.83-5.49-23.65a72.34,72.34,0,0,0-4.16-10.77c-1.05-2.36-2.52-4.52-5.52-5.23,1.6-1.87,3.1-1.29,4.08-.08a23.64,23.64,0,0,1,3.92,6.11,117.7,117.7,0,0,1,4.66,14.27C832,746,833.38,753.39,835.06,761.39Z" transform="translate(-144.92 -19.56)"/><path class="cls-11" d="M504.07,461.53c-.36,1.22-1.16,1.64-2.3,1.09s-2.18-1.22-3.26-1.83l-.83-.93.07.05-1.61-.8.05,0-1.59-.79,0,0-5.45-3.06-11.06-5.82c-.13,1.18-.22,1.89-.3,2.6-.05,4.05-.14,8.11-.09,12.16,0,.5.73,1,1.13,1.5.4,2.88.84,5.76-1.55,8.1-.19-6.39-.39-12.79-.55-19.19-.06-2.26,0-4.53,0-6.79.61,0,.9-.09,1.09,0Q491,454.69,504.07,461.53Z" transform="translate(-144.92 -19.56)"/><path class="cls-4" d="M340.17,865.46q.15-25.58.3-51.14a6.65,6.65,0,0,1,.56-1.57l15.45-.7c-.06.25-.11.5-.16.75l-14.42,1.29c-.35,17.29-.69,34.29-1,51.28Z" transform="translate(-144.92 -19.56)"/><path class="cls-26" d="M346.67,473.94l-1-.88c3.28-.93,6.52-2.4,9.85-2.67,6.24-.5,11,2.37,14.2,7.85l-.27,1.48c-5-4.91-10.77-7.62-17.91-6.73C349.89,473.2,348.29,473.62,346.67,473.94Z" transform="translate(-144.92 -19.56)"/><path class="cls-16" d="M340.17,865.46l.7-.09c-.18,6.16-.43,12.31-.53,18.47-.12,7.46-.11,14.93-.14,22.4,0,3.45,0,6.9-.36,10.38-1.75-1.62-1-3.64-.93-5.48,0-2.16.51-4.32.52-6.49.07-11.71,0-23.43.09-35.14A24.74,24.74,0,0,1,340.17,865.46Z" transform="translate(-144.92 -19.56)"/><path class="cls-11" d="M796.41,680.08l-1.61,1.24c-.48-3.27-.9-6.21-1.33-9.15a9.65,9.65,0,0,0,.58-2.83c-.24-2.63-.7-5.25-1.08-7.88-.11-1.13-.27-2.26-.31-3.4-.09-2.07-1-3.33-3.17-3.49l0,0-1.57-.8,0,0-.79-.8,0,0-1.59-.81,0,0c0-.09.14-.18.12-.26a2.63,2.63,0,0,0-.15-.53,2.84,2.84,0,0,0-.19-.56l.66-.72c5.16,2.35,8.65,5.53,8.59,12C794.63,668.16,795.79,674.12,796.41,680.08Z" transform="translate(-144.92 -19.56)"/><path class="cls-11" d="M769.45,900.93c0-.47,0-.93,0-1.4l23.67-1c3.7-.16,7.39-.29,11.08-.43l-.09,1.22c-10.3.56-20.6,1.14-30.91,1.68C772,901.05,770.72,901,769.45,900.93Z" transform="translate(-144.92 -19.56)"/><path class="cls-17" d="M275.57,962.27c0,.38-.05.76-.07,1.14-7.56-.15-15.12-.32-22.69-.45-5.65-.11-11.3-.18-16.95-.24a25.49,25.49,0,0,1-6.54-.61h3.88Q252.08,962,271,962C272.51,962,274,962.17,275.57,962.27Z" transform="translate(-144.92 -19.56)"/><path class="cls-17" d="M711.73,902.92c-2.42.14-4.83.37-7.25.42-10.75.23-21.49.41-32.24.6a16.23,16.23,0,0,1-3.8-.28c4.42-.34,8.84-.8,13.27-1,8.43-.37,16.88-.62,25.32-.88,1.53,0,3.07.05,4.6.08C711.67,902.22,711.7,902.57,711.73,902.92Z" transform="translate(-144.92 -19.56)"/><path class="cls-27" d="M586.48,503.86v-.79q9.12-2.26,18.23-4.51a12.39,12.39,0,0,0,1.87-.39c3.85-1.69,6.89-.47,9.45,2.55l-1.73.1h-.81l0,0-1.6-.79,0,0c-.52-.44-1.14-1.36-1.53-1.27-4.92,1.11-9.81,2.37-14.7,3.58l0,0-3.92.79.07,0-3.94.81.09,0Z" transform="translate(-144.92 -19.56)"/><path class="cls-11" d="M358,971.25c0-.5,0-1,0-1.51l23.14,8.58c0,.43,0,.86,0,1.29Z" transform="translate(-144.92 -19.56)"/><path class="cls-28" d="M804.16,899.3l.09-1.22,32.38-1c0,.22-.08.45-.11.67q-13.89.76-27.79,1.52C807.21,899.35,805.69,899.29,804.16,899.3Z" transform="translate(-144.92 -19.56)"/><path class="cls-15" d="M329.46,787.48l1.87,1.37-13.67,1.53a9.46,9.46,0,0,0-2.43-.59c-3,.11-6,.36-9,.56,0-.22,0-.44,0-.66,2.31-.36,4.61-.87,6.94-1.07C318.61,788.16,324,787.85,329.46,787.48Z" transform="translate(-144.92 -19.56)"/><path class="cls-4" d="M344.57,855.45V837.76l10.89-.88.07.58-9.75,1.5c-.14,5.53-.28,11-.41,16.51Z" transform="translate(-144.92 -19.56)"/><path class="cls-15" d="M343.42,906.59h9.26l.1.59-8.14,1.26q-.6,10.24-1.2,20.54l-.67,0C343,921.56,343.2,914.18,343.42,906.59Z" transform="translate(-144.92 -19.56)"/><path class="cls-11" d="M306.25,789.69c0,.22,0,.44,0,.66a14.19,14.19,0,0,0-.66,2.89c-.11,4.24-.1,8.49-.14,12.74a13.27,13.27,0,0,0,0,9.11,11.43,11.43,0,0,1,0,3c-.18.66-1,1.14-1.57,1.7q.24-14,.48-28.07C304.31,790.43,304.63,789.46,306.25,789.69Z" transform="translate(-144.92 -19.56)"/><path class="cls-9" d="M253,973.85c10.07-.39,25.78.35,28.74,1.65-3.73.77-6.83.32-9.9.26s-6.15-.31-9.23-.44-6.42-.21-9.63-.31Z" transform="translate(-144.92 -19.56)"/><path class="cls-16" d="M815.76,877.74l.15.73L798,878q-4.61-.12-9.21-.18a10.45,10.45,0,0,1-4.54-.73H791c7,0,14.07,0,21.11,0A21,21,0,0,1,815.76,877.74Z" transform="translate(-144.92 -19.56)"/><path class="cls-11" d="M743.15,638.37c-.35,1.77-.69,3.54-1.19,6.1-.39-2.58-.67-4.45-1-6.32a7.77,7.77,0,0,0-.08-6.77c-.18-2.73-.31-5.47-.56-8.19-.08-1-.39-2-1.81-1.82h0l-1.71-2.11.63-.78a6.66,6.66,0,0,1,4.6,6.61C742.17,629.52,742.77,633.94,743.15,638.37Z" transform="translate(-144.92 -19.56)"/><path class="cls-26" d="M327.09,796.58l-6,.95V808c-1.75.64-2.43.15-2.44-1.37,0-3.33,0-6.67,0-10.44l8.38-.8Z" transform="translate(-144.92 -19.56)"/><path class="cls-28" d="M326.39,413.65l1,.86c-6,2-12,4-18.07,5.93-2.3.73-4.65,1.29-7,1.93l.05-.26-.22-.14c3.09-1.16,6.16-2.41,9.29-3.47C316.4,416.82,321.4,415.26,326.39,413.65Z" transform="translate(-144.92 -19.56)"/><path class="cls-9" d="M552.55,905c0,.41,0,.83,0,1.24l-26.19.68,0-1.1Z" transform="translate(-144.92 -19.56)"/><path class="cls-11" d="M286.21,913.42c-.07.29-.13.58-.2.88h-7.44c.12,4-.75,7.64.59,11.24,0,1,0,2,.06,3,.06,1.49-.86,1.88-2.12,1.89a166.62,166.62,0,0,1,.33-17Z" transform="translate(-144.92 -19.56)"/><path class="cls-4" d="M319.26,832.18c-.14,4.83-.3,9.65-.42,14.48-.14,5.73-.24,11.46-.35,17.19l-.69.06c0-9.34.07-18.67.17-28a23.67,23.67,0,0,1,.61-3.69Z" transform="translate(-144.92 -19.56)"/><path class="cls-10" d="M317.76,894q-.37,15.13-.77,30.28a7.81,7.81,0,0,1-.69,1.62v-5.53c0-7.43,0-14.86,0-22.3a25.49,25.49,0,0,1,.69-4C317.27,894,317.52,894,317.76,894Z" transform="translate(-144.92 -19.56)"/><path class="cls-9" d="M726.38,847.65c-.31-3.19-.81-6.38-.88-9.58-.06-2.52-.68-4.22-3.45-4.55a2.27,2.27,0,0,1-1.55-1.18l6,.34,1,15Z" transform="translate(-144.92 -19.56)"/><path class="cls-28" d="M343.71,884.46V871.37h11.91c-1.3.28-3,.68-4.76,1s-3.51.62-5.64,1c-.18,3.82-.36,7.5-.54,11.19Z" transform="translate(-144.92 -19.56)"/><path class="cls-14" d="M317.76,894c-.24,0-.49,0-.74.06,0-8.7,0-17.39.12-26.09a25.46,25.46,0,0,1,.66-4l.69-.06c-.19,4.56-.44,9.13-.55,13.69C317.82,883,317.82,888.49,317.76,894Z" transform="translate(-144.92 -19.56)"/><path class="cls-28" d="M253,973.85l0,1.16-27.71-.78.12-1q9.4.15,18.8.33C247.17,973.61,250.11,973.75,253,973.85Z" transform="translate(-144.92 -19.56)"/><path class="cls-28" d="M195.05,890.07l.06-.86a27.45,27.45,0,0,1,3.7-.52c7.78-.09,15.55-.12,23.33-.17,0,.25-.09.49-.13.74-7.57.3-15.15.62-22.73.9C197.87,890.21,196.46,890.1,195.05,890.07Z" transform="translate(-144.92 -19.56)"/><path class="cls-28" d="M364.84,695.4q-9.72,1.38-19.44,2.73c-1,.14-2,.17-3.33.29,2.32-2,9.65-3.19,22.91-3.84C364.93,694.86,364.89,695.13,364.84,695.4Z" transform="translate(-144.92 -19.56)"/><path class="cls-28" d="M381.13,979.61c0-.43,0-.86,0-1.29l18.5,6.71.84,1a27.78,27.78,0,0,1-4-.81C391.31,983.38,386.23,981.47,381.13,979.61Z" transform="translate(-144.92 -19.56)"/><path class="cls-16" d="M515.45,642.74c3.09-.65,6.16-1.38,9.26-1.92,5-.87,10-1.62,15-2.4.35-.06.74.07,1.2.68l-25.53,4.57C515.44,643.36,515.44,643.05,515.45,642.74Z" transform="translate(-144.92 -19.56)"/><path class="cls-15" d="M684.61,874.11c0,.47-.07.95-.1,1.43l-23.6-1.92,0-.38Z" transform="translate(-144.92 -19.56)"/><path class="cls-11" d="M324.76,700.82l-.75-1.3,17.39-2.29C339.48,699.14,331.38,700.63,324.76,700.82Z" transform="translate(-144.92 -19.56)"/><path class="cls-4" d="M364.61,838.06c-.26,7.18-.5,14.08-.75,21h-.32V836.42l5.79-.4.11.45Z" transform="translate(-144.92 -19.56)"/><path class="cls-16" d="M225.43,973.22l-.12,1c-3.68-.16-7.37-.36-11.06-.47-3.46-.11-6.91-.13-10.37-.18a16.69,16.69,0,0,1-4-.36Z" transform="translate(-144.92 -19.56)"/><path class="cls-9" d="M711.73,902.92c0-.35-.06-.7-.1-1.06l23.93-.61-.15,1.41Z" transform="translate(-144.92 -19.56)"/><path class="cls-28" d="M526.31,905.77l0,1.1-24.77.39c0-.24.05-.48.07-.73Z" transform="translate(-144.92 -19.56)"/><path class="cls-17" d="M532.35,649,515.07,652a13.15,13.15,0,0,1-4.73.16,110,110,0,0,1,22.12-3.76C532.43,648.58,532.39,648.8,532.35,649Z" transform="translate(-144.92 -19.56)"/><path class="cls-17" d="M530.05,646q-9.24,1.5-18.47,3c-1.63.28-3.08.42-2.92-1.72a47.35,47.35,0,0,0,5.21,0c5.44-.6,10.86-1.32,16.29-2C530.12,645.47,530.09,645.71,530.05,646Z" transform="translate(-144.92 -19.56)"/><path class="cls-17" d="M501.64,906.53c0,.25,0,.49-.07.73a22.22,22.22,0,0,1-3.66.62c-7,.06-14,0-21,0,0-.22.07-.44.12-.65,6.82-.27,13.64-.56,20.47-.81C498.86,906.41,500.25,906.5,501.64,906.53Z" transform="translate(-144.92 -19.56)"/><path class="cls-9" d="M499.19,561.07c-.34,3.68-.67,7.37-1,11.42l-4.12.8c-.37-2.73,1.6-1.84,2.51-2.42l1.28-9.81Z" transform="translate(-144.92 -19.56)"/><path class="cls-17" d="M216.94,694.69l20.49-3.16.13.76L217.19,696Z" transform="translate(-144.92 -19.56)"/><path class="cls-28" d="M362.76,906.51H370l.06.27-6.38,1.5c-.22,5.46-.43,10.9-.65,16.35h-.31Z" transform="translate(-144.92 -19.56)"/><path class="cls-28" d="M726.38,847.65h1.2q.6,8.82,1.21,17.65l-.92.11Q727.12,856.52,726.38,847.65Z" transform="translate(-144.92 -19.56)"/><path class="cls-4" d="M345.54,571.78q-7.44,1.8-14.86,3.63c-1.21.3-2,.19-1.88-1.4l16.91-3.14C345.65,571.17,345.59,571.47,345.54,571.78Z" transform="translate(-144.92 -19.56)"/><path class="cls-28" d="M223.73,987.13l0,1-21.58-.75c0-.24,0-.48-.07-.72Z" transform="translate(-144.92 -19.56)"/><path class="cls-17" d="M202,986.64c0,.24.05.48.07.72l-21.59-.74.09-1.2c5.55.18,11.11.32,16.66.56C198.87,986.05,200.45,986.41,202,986.64Z" transform="translate(-144.92 -19.56)"/><path class="cls-15" d="M347.12,579.53c-3.95,1-7.89,2-11.86,3-1,.23-2.28.94-2.79-1.15l14.85-3C347.25,578.72,347.19,579.13,347.12,579.53Z" transform="translate(-144.92 -19.56)"/><path class="cls-16" d="M222,889.26c0-.25.08-.49.13-.74.32-.19.64-.55,1-.55,6.61,0,13.22,0,19.82.26Z" transform="translate(-144.92 -19.56)"/><path class="cls-13" d="M477,907.27c-.05.21-.09.43-.12.65-.3.22-.61.63-.91.64a172.74,172.74,0,0,1-17.61-.55Z" transform="translate(-144.92 -19.56)"/><path class="cls-28" d="M557.84,875.34l-18.47.79v-1.22c4-.11,7.93-.21,11.89-.33,2.17-.07,4.34-.17,6.51-.27C557.79,874.65,557.82,875,557.84,875.34Z" transform="translate(-144.92 -19.56)"/><path class="cls-9" d="M319.26,832.18l-.68,0V814.63l8.6-.44c-.05.31-.11.62-.16.94l-7.42.89C319.49,821.57,319.37,826.88,319.26,832.18Z" transform="translate(-144.92 -19.56)"/><path class="cls-16" d="M364,876.87c-.12,3-.23,6.1-.35,9.15s-.29,6.32-.64,9.47V876.78Z" transform="translate(-144.92 -19.56)"/><path class="cls-10" d="M180.61,985.42l-.09,1.2-19.38-.83v-.37Z" transform="translate(-144.92 -19.56)"/><path class="cls-28" d="M323.56,821.67l-.59,6.46-.35,0V820l9.64-.84.09.48Z" transform="translate(-144.92 -19.56)"/><path class="cls-16" d="M323.12,844.49l-.81,18.58H322V844.42Z" transform="translate(-144.92 -19.56)"/><path class="cls-12" d="M364.84,695.4c.05-.27.09-.54.14-.82,1.7-.39,3.38-.92,5.11-1.15,3.63-.47,7.28-.78,10.93-1.15l.11.85Z" transform="translate(-144.92 -19.56)"/><path class="cls-11" d="M778,644.85c-.16.56-.32,1.13-.58,2.07-2.55-1.85-4.83-3.42-7-5.16-.36-.29-.12-1.31-.16-2Z" transform="translate(-144.92 -19.56)"/><path class="cls-28" d="M350.92,794.21l-15.35,1.54v-1.18l15.53-1.14C351,793.69,351,794,350.92,794.21Z" transform="translate(-144.92 -19.56)"/><path class="cls-14" d="M341.75,576.16l15.19-3.76.26,1-15.47,3.84C341.74,576.87,341.74,576.52,341.75,576.16Z" transform="translate(-144.92 -19.56)"/><path class="cls-11" d="M724,609.4c-.59.33-1.5,1.1-1.71.94-2.33-1.75-4.55-3.63-6.76-5.52-.21-.18-.1-.74-.14-1.12Z" transform="translate(-144.92 -19.56)"/><path class="cls-10" d="M729.58,876.27c.87,5.35,1.63,10.7.71,16.17q-.9-7.92-1.79-15.84Z" transform="translate(-144.92 -19.56)"/><path class="cls-17" d="M232.85,696.18c-5,.46-9.9,2.15-15,1.68,5-1.2,10-2.39,15.12-2.41C232.92,695.69,232.89,695.94,232.85,696.18Z" transform="translate(-144.92 -19.56)"/><path class="cls-17" d="M321.53,910.92l-.75,16.26-.23,0V910.84Z" transform="translate(-144.92 -19.56)"/><path class="cls-14" d="M557.84,875.34c0-.34-.05-.69-.08-1h17.06v.19Z" transform="translate(-144.92 -19.56)"/><path class="cls-9" d="M364,876.87l-1-.09v-6h6.47l.09.34-5.26.9C364.17,873.65,364.07,875.26,364,876.87Z" transform="translate(-144.92 -19.56)"/><path class="cls-16" d="M836.52,897.75c0-.22.07-.45.11-.67.32-.2.63-.58,1-.58a146.92,146.92,0,0,1,15.26.46Z" transform="translate(-144.92 -19.56)"/><path class="cls-10" d="M356.32,812.8c.05-.25.1-.5.16-.75s.37-.45.57-.46c4.39-.38,8.78-.73,13.2-.8C365.74,812.5,361,812.3,356.32,812.8Z" transform="translate(-144.92 -19.56)"/><path class="cls-9" d="M321.53,910.92l-1-.08c.1-1.24.19-2.48.3-3.86h7.7l.07.56-6.65.72Z" transform="translate(-144.92 -19.56)"/><path class="cls-14" d="M784,831.54l13.12,2.08C795.05,834.91,788,833.63,784,831.54Z" transform="translate(-144.92 -19.56)"/><path class="cls-14" d="M788.11,826l12.13,1.17c.24.89.23,1.83-1.65,1.46-3.47-.68-7-1.3-10.44-1.94Z" transform="translate(-144.92 -19.56)"/><path class="cls-17" d="M322.33,877q-.4,7.65-.82,15.29h-.31V876.94Z" transform="translate(-144.92 -19.56)"/><path class="cls-16" d="M350.92,794.21c.05-.26.11-.52.17-.78a32.41,32.41,0,0,1,13.8-.67Z" transform="translate(-144.92 -19.56)"/><path class="cls-28" d="M322.33,877l-1.13,0c.13-1.39.26-2.77.4-4.36h9.7l0,.24-8.51,1.28Z" transform="translate(-144.92 -19.56)"/><path class="cls-10" d="M530.05,646c0-.24.07-.48.11-.72,4.44-1.71,9.11-1.82,13.73-2.32l.13.77Z" transform="translate(-144.92 -19.56)"/><path class="cls-28" d="M341.75,576.16c0,.36,0,.71,0,1.07-3.77.7-7.39,2.29-11.35,2C334,577.47,337.89,576.88,341.75,576.16Z" transform="translate(-144.92 -19.56)"/><path class="cls-17" d="M673.05,801.33c.16,1.33.32,2.66.47,4l-9.77-1.73c0-.26,0-.52-.07-.79l7.88.79Z" transform="translate(-144.92 -19.56)"/><path class="cls-12" d="M226.75,689.22l12.94-2.56.19,1.07L226.68,690C226.7,689.74,226.72,689.48,226.75,689.22Z" transform="translate(-144.92 -19.56)"/><path class="cls-14" d="M347.12,579.53c.07-.4.13-.81.2-1.21a68.52,68.52,0,0,1,12.22-2.59l.16.74Z" transform="translate(-144.92 -19.56)"/><path class="cls-14" d="M218.17,914.76a2.1,2.1,0,0,0,0-.56h19.89v.56Z" transform="translate(-144.92 -19.56)"/><path class="cls-12" d="M345.54,571.78c0-.31.11-.61.17-.91,3.68-1.74,7.66-2.07,11.55-2.83l.21.86Z" transform="translate(-144.92 -19.56)"/><path class="cls-17" d="M671.58,809.55c-4.06.06-7.86-1.43-12.66-2.53a12.69,12.69,0,0,1,2.33-.22c3.48.56,7,1.17,10.42,1.77Z" transform="translate(-144.92 -19.56)"/><path class="cls-28" d="M722.58,852.45c1.14-.25,2-.13,2.15,1.32.25,3.55.49,7.1.6,10.66C723.88,860.59,724.66,856.22,722.58,852.45Z" transform="translate(-144.92 -19.56)"/><path class="cls-12" d="M732.52,822.79,720,820.65l.19-1.07,12.22,2.34C732.45,822.21,732.48,822.5,732.52,822.79Z" transform="translate(-144.92 -19.56)"/><path class="cls-26" d="M536.31,876.16c-4.46.05-8.92,1.06-13.4,0,4.41-1.09,8.89-.92,13.36-1C536.28,875.49,536.29,875.83,536.31,876.16Z" transform="translate(-144.92 -19.56)"/><path class="cls-12" d="M343.71,884.46l1,.12q-.35,6.25-.7,12.51l-.27,0Z" transform="translate(-144.92 -19.56)"/><path class="cls-10" d="M532.35,649c0-.22.08-.44.11-.66a32.65,32.65,0,0,1,3.94-1.13c3-.51,6-.87,9-1.29l.12.78Z" transform="translate(-144.92 -19.56)"/><path class="cls-28" d="M832.43,832.26,843.56,834c-2.6.94-2.6,1-6,0-1.71-.44-3.42-.9-5.13-1.36Z" transform="translate(-144.92 -19.56)"/><path class="cls-11" d="M730.45,615.91l-.34-2.33,7.36,4.9-.63.78-2.15-.22h0c.24-1.28-.57-1.51-1.56-1.56l0,0-1.57-.8,0,0Z" transform="translate(-144.92 -19.56)"/><path class="cls-14" d="M840.49,838.42l-7.78-2.67.08-.4,9.86,1.23-2.18,1.82Z" transform="translate(-144.92 -19.56)"/><path class="cls-16" d="M302.31,422.37l-10.55,3.88-.34-1c3.5-1.28,6.87-3,10.72-3.25l.22.14Z" transform="translate(-144.92 -19.56)"/><path class="cls-9" d="M827.73,679.28c-1.76-1.19-3.61-2.27-5.25-3.6-.67-.54-.91-1.6-1.35-2.42l8.78,5.74-.26.31Z" transform="translate(-144.92 -19.56)"/><path class="cls-4" d="M226.75,689.22c0,.26-.05.52-.07.78-2.63.47-5.26,1-7.89,1.38a11.25,11.25,0,0,1-2.31-.11l0-.94Z" transform="translate(-144.92 -19.56)"/><path class="cls-17" d="M840.47,838.4c.12,1.38-.62,1.84-1.85,1.61a55.61,55.61,0,0,1-8.06-2l9.93.44Z" transform="translate(-144.92 -19.56)"/><path class="cls-28" d="M730.05,818.12l9.94,1.31-.15,1.07c-3.33.54-6.43-1.23-9.68-1.53C730.13,818.69,730.09,818.41,730.05,818.12Z" transform="translate(-144.92 -19.56)"/><path class="cls-17" d="M789.36,829.5l9.41,1.46C796.92,832.34,796.92,832.34,789.36,829.5Z" transform="translate(-144.92 -19.56)"/><path class="cls-28" d="M323.12,844.49l-1.14-.07c.13-1.89.26-3.77.41-5.85h6.9l0,.31-5.86.63Z" transform="translate(-144.92 -19.56)"/><path class="cls-28" d="M350.14,818.92l-4.12.57c-.23,2.86-.46,5.64-.68,8.41h-.25v-9.46l5.21-.25A4.65,4.65,0,0,0,350.14,818.92Z" transform="translate(-144.92 -19.56)"/><path class="cls-12" d="M664.53,812.08l-10-2.2c0-.26.1-.52.14-.78,3.32.43,6.65.77,9.82,2.09Z" transform="translate(-144.92 -19.56)"/><path class="cls-9" d="M335.56,794.57v1.18l-8.48.83,0-1.18Z" transform="translate(-144.92 -19.56)"/><path class="cls-17" d="M835.72,687.93c-.33,1.45-.66,2.9-1,4.46-.67-3.4-1.33-6.71-2-10l1.62,0h0c.29,1.56-.75,3.39.92,4.68Z" transform="translate(-144.92 -19.56)"/><path class="cls-4" d="M730.92,815.08l-9.32-2.18c.06-.24.11-.48.17-.71l9.13,2Z" transform="translate(-144.92 -19.56)"/><path class="cls-17" d="M727.87,865.4l.92-.11.6,10.13-1-.21Z" transform="translate(-144.92 -19.56)"/><path class="cls-15" d="M363.63,820.46l.44-3.54h5.4l.09.25a25.2,25.2,0,0,1-3,.83c-1.52.24-1.69,1.31-1.77,2.5Z" transform="translate(-144.92 -19.56)"/><path class="cls-17" d="M720.13,876.14a14.53,14.53,0,0,1-6.48-.59c2.15-.79,4.28-1.25,6.4-.11C720.08,875.68,720.1,875.91,720.13,876.14Z" transform="translate(-144.92 -19.56)"/><path class="cls-9" d="M741.35,817.57l-7-1.79C738.3,814.73,740.07,815.08,741.35,817.57Z" transform="translate(-144.92 -19.56)"/><path class="cls-10" d="M232.85,696.18c0-.24.07-.49.09-.73l8.3-1.81.2,1Z" transform="translate(-144.92 -19.56)"/><path class="cls-10" d="M663.68,802.8c0,.27,0,.53.07.79L656,802.16C658.76,801.15,661.24,801.83,663.68,802.8Z" transform="translate(-144.92 -19.56)"/><path class="cls-14" d="M327,815.13c.05-.32.11-.63.16-.94l7.51-.67.08.81Z" transform="translate(-144.92 -19.56)"/><path class="cls-14" d="M730.05,818.12c0,.29.08.57.11.85l-7-1.43C725.62,816.61,727.86,817.17,730.05,818.12Z" transform="translate(-144.92 -19.56)"/><path class="cls-4" d="M515.45,642.74c0,.31,0,.62,0,.93l-7.16,1-.13-1Z" transform="translate(-144.92 -19.56)"/><path class="cls-16" d="M363.63,820.46l1.13,0q-.37,3.53-.73,7l-.4,0Z" transform="translate(-144.92 -19.56)"/><path class="cls-28" d="M721.64,838.12c2.56.57,2.56.57,2,4.68Z" transform="translate(-144.92 -19.56)"/><path class="cls-4" d="M732.52,822.79c0-.29-.07-.58-.11-.87l6.81.54c-1.79,1-1.78,1-3.26.78C734.82,823.05,733.67,822.94,732.52,822.79Z" transform="translate(-144.92 -19.56)"/><path class="cls-12" d="M663.73,671.64l-1.54-6.29,1.34,0Z" transform="translate(-144.92 -19.56)"/><path class="cls-11" d="M720.13,876.14c0-.23,0-.46-.08-.7l8.34-.23,1,.21.18.85-1.07.33Z" transform="translate(-144.92 -19.56)"/><path class="cls-16" d="M350.14,818.92a4.65,4.65,0,0,1,.16-.72l4.52-.86.15.86Z" transform="translate(-144.92 -19.56)"/><path class="cls-4" d="M664.53,812.08l-.06-.89,5.12.54C667.38,813.43,665.92,811.74,664.53,812.08Z" transform="translate(-144.92 -19.56)"/><path class="cls-15" d="M550.3,537l2.52,2.85c-1.92.66-2.19-.53-2.65-1.47C550.21,537.89,550.25,537.43,550.3,537Z" transform="translate(-144.92 -19.56)"/><path class="cls-11" d="M730.11,613.58l-2.66,1c.15-1.12.25-1.84.34-2.56Z" transform="translate(-144.92 -19.56)"/><path class="cls-11" d="M536.31,876.16c0-.33,0-.67,0-1l3.09-.25c0,.41,0,.81,0,1.22Z" transform="translate(-144.92 -19.56)"/><path class="cls-28" d="M400.41,986l3.94,1.81Z" transform="translate(-144.92 -19.56)"/><path class="cls-14" d="M408.92,989.07l3.88,1.55C411.29,990.65,409.73,990.8,408.92,989.07Z" transform="translate(-144.92 -19.56)"/><path class="cls-26" d="M499.19,561.07h-1.36a3.86,3.86,0,0,1,2-3.65C499.53,559,499.36,560,499.19,561.07Z" transform="translate(-144.92 -19.56)"/><path class="cls-9" d="M835.26,687c-1.67-1.29-.63-3.12-.92-4.68C834.65,683.89,835,685.45,835.26,687Z" transform="translate(-144.92 -19.56)"/><path class="cls-15" d="M369.43,479.72l.27-1.48c.47,1.09.93,2.19,1.39,3.29l0,0Z" transform="translate(-144.92 -19.56)"/><path class="cls-11" d="M781.46,647.1l2.37,1.56c-.23.24-.45.48-.67.73l-1.38-.23,0,0-1-1.34Z" transform="translate(-144.92 -19.56)"/><path class="cls-11" d="M783.83,648.66l2.27,1.54-.66.72-1.35-.21h0l-1-1.33C783.38,649.14,783.6,648.9,783.83,648.66Z" transform="translate(-144.92 -19.56)"/><path class="cls-19" d="M659.35,567.67l2.31,1.59-.28.32-.78.08-.78-.1,0,0c-.27-.52-.53-1-.8-1.55Z" transform="translate(-144.92 -19.56)"/><path class="cls-11" d="M726,610.78c-.09.54-.17,1.07-.26,1.6l-.63-.16c.15-.51.31-1,.47-1.52A1.2,1.2,0,0,0,726,610.78Z" transform="translate(-144.92 -19.56)"/><path class="cls-11" d="M779.48,647.58l.06-1.64,1.92,1.16-.62.74Z" transform="translate(-144.92 -19.56)"/><path class="cls-9" d="M829.91,679l2.33,1.52c-.09.12-.19.23-.29.34l-1.53,0,0,0-.8-1.54Z" transform="translate(-144.92 -19.56)"/><path class="cls-9" d="M834.35,682.33l-1.62,0h0c-.26-.51-.53-1-.8-1.53.1-.11.2-.22.29-.34Z" transform="translate(-144.92 -19.56)"/><path class="cls-9" d="M730.92,815.08l0-.92,2.82.43,0,.71Z" transform="translate(-144.92 -19.56)"/><path class="cls-14" d="M406,988.3l2.91.77Z" transform="translate(-144.92 -19.56)"/><path class="cls-16" d="M315.06,446.62c.74,2-.38,1.74-1.77,1.49l1.81-1.48Z" transform="translate(-144.92 -19.56)"/><path class="cls-21" d="M306.78,448.79l2.45-.66.1.14L307,449Z" transform="translate(-144.92 -19.56)"/><path class="cls-17" d="M657,806.14l.63.16c-.15.09-.31.26-.46.26s-.31-.17-.47-.26Z" transform="translate(-144.92 -19.56)"/><path class="cls-14" d="M412.78,990.6l2.34.79Z" transform="translate(-144.92 -19.56)"/><path class="cls-16" d="M286.71,427l.3-.11.08.41a1,1,0,0,1-.31-.06S286.73,427,286.71,427Z" transform="translate(-144.92 -19.56)"/><path class="cls-16" d="M289.26,426.06l.32.13-.44.32-.17-.27Z" transform="translate(-144.92 -19.56)"/><path class="cls-14" d="M719.86,816.46c0-.08.06-.21.1-.21a1.15,1.15,0,0,1,.29.08c0,.07-.07.21-.1.21A1,1,0,0,1,719.86,816.46Z" transform="translate(-144.92 -19.56)"/><path class="cls-14" d="M415.08,991.37l1.78.83Z" transform="translate(-144.92 -19.56)"/><path class="cls-15" d="M371.09,481.53c.21.24.41.47.6.72a2.73,2.73,0,0,1-.25.25c-.1-.34-.21-.67-.31-1Z" transform="translate(-144.92 -19.56)"/><path class="cls-19" d="M661.66,569.26l.93.62a2.61,2.61,0,0,1-.42.46l-.79-.76Z" transform="translate(-144.92 -19.56)"/><path class="cls-15" d="M553.16,541.3l-.22.22c-.06-.08-.18-.17-.17-.24s.13-.15.2-.22Z" transform="translate(-144.92 -19.56)"/><path class="cls-26" d="M550.3,537c0,.46-.09.92-.13,1.38l-1.08-.85.91-.81A.47.47,0,0,1,550.3,537Z" transform="translate(-144.92 -19.56)"/><path class="cls-11" d="M250.66,595.08l.36.37c-.08,0-.21,0-.24-.09a.88.88,0,0,1-.07-.33Z" transform="translate(-144.92 -19.56)"/><polygon class="cls-26" points="561.26 644.27 561.13 644.38 561.3 644.3 561.26 644.27"/><path class="cls-27" d="M488.84,236.9c-2.5-.26-2.35-2.06-2.52-3.46a95.11,95.11,0,0,0-4.92-20.58A56.48,56.48,0,0,0,471.63,195a59.32,59.32,0,0,0-5.44-5.43,13,13,0,0,0-10.46-3.72,8.1,8.1,0,0,1,1.93-1,8,8,0,0,1,6.65,1.18,34,34,0,0,1,6.45,5.41c7.68,9.06,13.16,19.29,15.36,31.09Z" transform="translate(-144.92 -19.56)"/><path class="cls-27" d="M378.54,175c-8.52-3.2-16.37-1.32-23.89,3.14A50.58,50.58,0,0,0,334,201.84l-.92-1.09c3.91-11.34,11.72-19.29,21.92-25.12a33.37,33.37,0,0,1,12.21-4.33,16.43,16.43,0,0,1,12.37,2.78Z" transform="translate(-144.92 -19.56)"/><path class="cls-25" d="M427.81,218q.13-18.9.26-37.8c0-5.3-2.35-8.4-7.47-8.88-2.13-.19-4.37.85-6.39,1.29.27-2.09,1.4-3.39,4-3.8a11.8,11.8,0,0,1,7.82,1.44,6,6,0,0,1,3.14,5.76c-.14,14-.21,28-.31,42.06Z" transform="translate(-144.92 -19.56)"/><path class="cls-28" d="M427.81,218l1.07.07q-.11,13.59-.2,27.17l-1.11,0Z" transform="translate(-144.92 -19.56)"/><path class="cls-9" d="M333.09,200.75l.92,1.09c-1,4.1-2.07,8.19-2.94,12.31-.26,1.24-.87,1.88-1.95,2-.55,0-1.14-.5-2.69-1.25,3.2-.59,3.47-2.25,3.85-4.22A102.66,102.66,0,0,1,333.09,200.75Z" transform="translate(-144.92 -19.56)"/><path class="cls-9" d="M378.54,175l1-.91,3.58,2.68C381.14,177.06,379.9,175.9,378.54,175Z" transform="translate(-144.92 -19.56)"/><path class="cls-4" d="M409.72,361l-2.35.79Z" transform="translate(-144.92 -19.56)"/><path class="cls-4" d="M416.67,358.66l-2.36.8Z" transform="translate(-144.92 -19.56)"/><path class="cls-4" d="M414.36,359.43l-2.36.8Z" transform="translate(-144.92 -19.56)"/><path class="cls-4" d="M421.31,357.11l-2.37.8Z" transform="translate(-144.92 -19.56)"/><path class="cls-4" d="M412,360.2l-2.36.8Z" transform="translate(-144.92 -19.56)"/><path class="cls-4" d="M419,357.89l-2.36.79Z" transform="translate(-144.92 -19.56)"/><path class="cls-15" d="M430.58,359.43l-1.56-.78Z" transform="translate(-144.92 -19.56)"/><path class="cls-15" d="M432.13,361l-.78-.79Z" transform="translate(-144.92 -19.56)"/><path class="cls-15" d="M431.36,360.21l-.79-.79Z" transform="translate(-144.92 -19.56)"/><path class="cls-15" d="M429,358.67l-.8-.79Z" transform="translate(-144.92 -19.56)"/><path class="cls-17" d="M478.87,465.75c-.4-.5-1.13-1-1.13-1.5-.05-4.05,0-8.11.09-12.16l1.27.78Z" transform="translate(-144.92 -19.56)"/><path class="cls-13" d="M479.1,452.87l-1.27-.78c.08-.71.17-1.42.3-2.6l11.06,5.82c0,.43,0,.86,0,1.28-2.7-1.19-5.38-2.42-8.1-3.55A6.75,6.75,0,0,0,479.1,452.87Z" transform="translate(-144.92 -19.56)"/><path class="cls-14" d="M489.23,456.59c0-.42,0-.85,0-1.28l5.45,3.06Z" transform="translate(-144.92 -19.56)"/><path class="cls-14" d="M494.6,458.35l1.59.79Z" transform="translate(-144.92 -19.56)"/><path class="cls-14" d="M496.14,459.11l1.61.8Z" transform="translate(-144.92 -19.56)"/><path class="cls-14" d="M497.68,459.86l.83.93Z" transform="translate(-144.92 -19.56)"/><path class="cls-16" d="M661.38,569.58l.79.76,1.05,8.57-.48,0c-.73-2.72-1.47-5.43-2.21-8.15,0-.38.05-.76.07-1.14Z" transform="translate(-144.92 -19.56)"/><path class="cls-12" d="M659.06,568c.27.51.53,1,.8,1.55l-2.38-.79c.07-.25.13-.51.2-.76Z" transform="translate(-144.92 -19.56)"/><path class="cls-12" d="M660.6,569.66c0,.38-.05.76-.07,1.14l-.71-1.24Z" transform="translate(-144.92 -19.56)"/><path class="cls-12" d="M738.55,621.37c1.42-.21,1.73.8,1.81,1.82.25,2.72.38,5.46.56,8.19l-.67,0Z" transform="translate(-144.92 -19.56)"/><path class="cls-17" d="M740.25,631.34l.67,0a7.77,7.77,0,0,1,.08,6.77Z" transform="translate(-144.92 -19.56)"/><path class="cls-12" d="M734.69,619l2.15.22,1.71,2.11C736.56,621.75,735.69,620.3,734.69,619Z" transform="translate(-144.92 -19.56)"/><path class="cls-12" d="M733.14,617.49c1,0,1.8.28,1.56,1.56Z" transform="translate(-144.92 -19.56)"/><path class="cls-12" d="M731.6,616.71l1.57.8Z" transform="translate(-144.92 -19.56)"/><path class="cls-12" d="M730.45,615.91l1.19.83Z" transform="translate(-144.92 -19.56)"/><path class="cls-16" d="M307,449l2.32-.77,3.74.18-4.86,2.11-1.09,4a3.42,3.42,0,0,0-.63-.09C306.66,452.63,306.84,450.84,307,449Z" transform="translate(-144.92 -19.56)"/><path class="cls-17" d="M306.49,454.43a3.42,3.42,0,0,1,.63.09v9.21h-.63Z" transform="translate(-144.92 -19.56)"/><path class="cls-10" d="M305.43,806c0-4.25,0-8.5.14-12.74a14.19,14.19,0,0,1,.66-2.89c3-.2,6-.45,9-.56a9.46,9.46,0,0,1,2.43.59l-10.24,1.18c-.45,4.81-.9,9.57-1.34,14.33A2.83,2.83,0,0,0,305.43,806Z" transform="translate(-144.92 -19.56)"/><path class="cls-17" d="M305.43,806a2.83,2.83,0,0,1,.65-.09c-.23,3.07-.45,6.13-.67,9.2A13.27,13.27,0,0,1,305.43,806Z" transform="translate(-144.92 -19.56)"/><path class="cls-14" d="M793,661.46c.38,2.63.84,5.25,1.08,7.88a9.65,9.65,0,0,1-.58,2.83l-1.5-10.7Z" transform="translate(-144.92 -19.56)"/><path class="cls-10" d="M793,661.46h-1a12.26,12.26,0,0,0-2.48-6.9c2.17.16,3.08,1.42,3.17,3.49C792.7,659.2,792.86,660.33,793,661.46Z" transform="translate(-144.92 -19.56)"/><path class="cls-14" d="M783.16,649.39l1,1.33c-1.32.3-2-.37-2.33-1.56Z" transform="translate(-144.92 -19.56)"/><path class="cls-14" d="M779.48,647.58l1.36.26,1,1.34Z" transform="translate(-144.92 -19.56)"/><path class="cls-14" d="M784.09,650.71l1.35.21a2.84,2.84,0,0,1,.19.56l-1.17,0Z" transform="translate(-144.92 -19.56)"/><path class="cls-10" d="M785.63,652.24l1.59.81Z" transform="translate(-144.92 -19.56)"/><path class="cls-10" d="M788,653.8l1.57.8Z" transform="translate(-144.92 -19.56)"/><path class="cls-10" d="M784.46,651.5l1.17,0a2.63,2.63,0,0,1,.15.53c0,.08-.08.17-.12.26Z" transform="translate(-144.92 -19.56)"/><path class="cls-10" d="M787.18,653l.79.8Z" transform="translate(-144.92 -19.56)"/><path class="cls-17" d="M829.65,679.31l.8,1.54-2.72-1.57Z" transform="translate(-144.92 -19.56)"/><path class="cls-17" d="M832,680.86c.27.51.54,1,.8,1.53l-2.33-1.56Z" transform="translate(-144.92 -19.56)"/><path class="cls-16" d="M279.16,925.54c-1.34-3.6-.47-7.25-.59-11.24H286l-6,1.63C279.77,919,279.46,922.28,279.16,925.54Z" transform="translate(-144.92 -19.56)"/><path class="cls-16" d="M595.74,502.39c4.89-1.21,9.78-2.47,14.7-3.58.39-.09,1,.83,1.53,1.27-3.76.65-7.52,1.35-11.3,1.93C599,502.26,597.38,502.27,595.74,502.39Z" transform="translate(-144.92 -19.56)"/><path class="cls-16" d="M588,503.94l3.94-.81Z" transform="translate(-144.92 -19.56)"/><path class="cls-16" d="M591.87,503.16l3.92-.79Z" transform="translate(-144.92 -19.56)"/><path class="cls-16" d="M586.48,503.86l1.61,0-3.26.41v.06Z" transform="translate(-144.92 -19.56)"/><path class="cls-16" d="M584.18,504.62l-2.15.85-.13-.55,2.33-.25Z" transform="translate(-144.92 -19.56)"/><path class="cls-16" d="M611.94,500.06l1.6.79Z" transform="translate(-144.92 -19.56)"/><path class="cls-2" d="M584.83,504.37v-.06l-.65.31.05.05A.69.69,0,0,0,584.83,504.37Z" transform="translate(-144.92 -19.56)"/><path class="cls-16" d="M613.49,500.82h.81l-.58.58Z" transform="translate(-144.92 -19.56)"/></svg>